<?xml version="1.0" encoding="UTF-8"?>
<svg id="Layer_1" data-name="Layer 1" xmlns="http://www.w3.org/2000/svg" xmlns:xlink="http://www.w3.org/1999/xlink" viewBox="0 0 115.31 23.01">
  <defs>
    <style>
      .cls-1 {
        fill: url(#linear-gradient);
      }

      .cls-1, .cls-2, .cls-3 {
        stroke-width: 0px;
      }

      .cls-4 {
        font-family: MontserratRoman-Medium, Montserrat;
        font-size: 4.8px;
        font-variation-settings: 'wght' 500;
        font-weight: 500;
      }

      .cls-4, .cls-5 {
        fill: #0c373b;
      }

      .cls-2 {
        fill: url(#linear-gradient-2);
      }

      .cls-3 {
        fill: url(#linear-gradient-3);
      }

      .cls-5 {
        font-family: MontserratRoman-ExtraBold, Montserrat;
        font-size: 16.19px;
        font-variation-settings: 'wght' 800;
        font-weight: 700;
      }
    </style>
    <linearGradient id="linear-gradient" x1="4.39" y1="198.07" x2="25.35" y2="181.96" gradientTransform="translate(0 -180.13)" gradientUnits="userSpaceOnUse">
      <stop offset="0" stop-color="#0e7f86"/>
      <stop offset="1" stop-color="#34c0ce"/>
    </linearGradient>
    <linearGradient id="linear-gradient-2" x1=".17" y1="200.59" x2="6.54" y2="193.58" gradientTransform="translate(0 -180.13)" gradientUnits="userSpaceOnUse">
      <stop offset="0" stop-color="#db7f29"/>
      <stop offset="1" stop-color="#f9b41a"/>
    </linearGradient>
    <linearGradient id="linear-gradient-3" x1="3.16" y1="199.22" x2="16.05" y2="188.84" gradientTransform="translate(0 -180.13)" gradientUnits="userSpaceOnUse">
      <stop offset="0" stop-color="#b5396b"/>
      <stop offset="1" stop-color="#db5993"/>
    </linearGradient>
  </defs>
  <g>
    <path class="cls-1" d="M23.81,1.44v16.94c0,.9-.81,1.58-1.7,1.43l-5.57-.96s-.08-.05-.08-.1V7.68c0-.81-.67-1.46-1.48-1.45h0l-8.07.15-1.43.03-2.12.04c-.05,0-.1-.04-.1-.1v-2.9c0-.74.55-1.35,1.28-1.44l.94-.11,1.43-.16,8.07-.92,1.48-.17,5.73-.65c.86-.1,1.62.57,1.62,1.44ZM14.12,7.89l-7.19-.12-1.43-.02-2.22-.04v3.57l2.22.09h0c.8.03,1.43.69,1.43,1.49v4.31l8.07,1.4v-9.79c0-.49-.39-.89-.88-.89ZM5.49,13.82v3.11l-1.1-.19c-.65-.11-1.12-.68-1.12-1.33v-3.01l.98.08c.7.05,1.25.64,1.25,1.34Z"/>
    <path class="cls-2" d="M5.49,20.39v1.27c0,.93-.91,1.58-1.79,1.28l-.44-.15-1.82-.62-.54-.19c-.55-.19-.91-.7-.91-1.28v-7.1c0-.79.67-1.41,1.46-1.35v6.1c0,.62.43,1.17,1.03,1.32l.79.19,2.21.54Z"/>
    <path class="cls-3" d="M15,18.57v2.4c0,.88-.82,1.52-1.67,1.32l-6.4-1.55v-3.55l8.07,1.39ZM2.83,7.71c-.76,0-1.38.59-1.38,1.35v2.15l1.82.08v-3.57h-.44ZM4.39,16.74c-.65-.11-1.12-.68-1.12-1.33v-3.01l-1.82-.15v6.1c0,.62.43,1.17,1.03,1.32l.79.19,2.22.54v-3.46l-1.1-.19Z"/>
  </g>
  <g>
    <text class="cls-4" transform="translate(30.2 18.49)"><tspan x="0" y="0">Automated Menu Ordering System</tspan></text>
    <text class="cls-5" transform="translate(30.34 12.77)"><tspan x="0" y="0">AMOS</tspan></text>
  </g>
</svg>