<svg width="913" height="724" viewBox="0 0 913 724" fill="none" xmlns="http://www.w3.org/2000/svg">
<g clip-path="url(#clip0_1_90)">
<path d="M-429 -198H1071V802H-429V-198Z" fill="white"/>
<path d="M151 48C151 46.4087 151.632 44.8826 152.757 43.7574C153.883 42.6321 155.409 42 157 42H305C306.591 42 308.117 42.6321 309.243 43.7574C310.368 44.8826 311 46.4087 311 48V156C311 157.591 310.368 159.117 309.243 160.243C308.117 161.368 306.591 162 305 162H157C155.409 162 153.883 161.368 152.757 160.243C151.632 159.117 151 157.591 151 156V48Z" fill="white" stroke="#3A414A" stroke-width="2"/>
<path d="M301 52H286V72H301V52Z" fill="white" stroke="#3A414A"/>
<path d="M291 55.33H281V58.67H291V55.33ZM291 65.33H281V68.67H291V65.33Z" fill="white" stroke="#3A414A"/>
<path d="M212.24 104.778L210.511 100.333H203.536L201.807 104.778H199.647L205.882 89.4691H208.227L214.338 104.778H212.24ZM209.894 98.6666L206.993 91.0741C206.252 93.8518 205.079 96.1358 204.153 98.6666H209.894Z" fill="black"/>
<path d="M219.647 92.8024C221.561 92.8024 222.61 93.6049 223.351 94.8395L223.289 88.6666H225.264L225.326 104.778H223.474C223.351 104.16 223.474 103.358 223.289 102.864C222.672 104.284 221.561 105.025 219.647 105.025C216.375 105.025 215.388 102.617 215.326 98.9753C215.326 94.9012 216.746 92.8024 219.647 92.8024ZM220.203 94.2839C217.733 94.2839 217.363 96.3827 217.363 98.9135C217.363 101.383 217.733 103.481 220.141 103.481C222.733 103.481 223.289 101.506 223.289 98.7901C223.289 96.1975 222.733 94.2222 220.203 94.2839Z" fill="black"/>
<path d="M239.709 94.3456C235.573 94.5308 237.363 100.827 236.993 104.778H235.079V97.3086C235.079 95.5185 234.77 94.2222 232.919 94.3456C228.845 94.5925 230.573 100.765 230.203 104.778H228.289L228.227 93.0493H230.079C230.141 93.6666 230.017 94.5308 230.203 95.0246C230.82 92.3086 236.314 91.9382 236.807 95.0246C237.486 93.7283 238.474 92.8641 240.388 92.8024C245.635 92.679 243.289 100.148 243.783 104.778H241.869V97.3086C241.869 95.5185 241.561 94.2839 239.709 94.3456Z" fill="black"/>
<path d="M246.684 90.5185V88.6666H248.659V90.5185H246.684ZM246.684 104.778V93.0493H248.659V104.778H246.684Z" fill="black"/>
<path d="M257.301 92.8024C262.795 92.5555 260.573 99.9629 261.005 104.778H259.03V97.3086C259.03 95.395 258.536 94.2839 256.622 94.3456C252.178 94.4691 253.906 100.642 253.598 104.778H251.622L251.561 93.0493H253.412C253.474 93.6666 253.351 94.5308 253.536 95.0246C254.215 93.6666 255.326 92.8641 257.301 92.8024Z" fill="black"/>
<path d="M431 48C431 46.4087 431.632 44.8826 432.757 43.7574C433.883 42.6321 435.409 42 437 42H585C586.591 42 588.117 42.6321 589.243 43.7574C590.368 44.8826 591 46.4087 591 48V156C591 157.591 590.368 159.117 589.243 160.243C588.117 161.368 586.591 162 585 162H437C435.409 162 433.883 161.368 432.757 160.243C431.632 159.117 431 157.591 431 156V48Z" fill="white" stroke="#3A414A" stroke-width="2"/>
<path d="M581 52H566V72H581V52Z" fill="white" stroke="#3A414A"/>
<path d="M571 55.33H561V58.67H571V55.33ZM571 65.33H561V68.67H571V65.33Z" fill="white" stroke="#3A414A"/>
<path d="M476.036 93.7284C475.419 92 473.875 90.9506 471.53 90.9506C467.888 90.9506 466.159 93.4198 466.159 97.0617C466.159 100.765 467.949 103.296 471.653 103.296C474.307 103.296 475.48 101.815 476.468 100.086L478.135 100.951C477.024 103.296 474.987 105.025 471.53 105.025C466.591 105.025 464.307 101.938 464.061 97.0617C463.69 90.642 470.172 87.6173 475.604 90.2099C476.777 90.7654 477.517 91.8148 478.011 93.0494" fill="black"/>
<path d="M484.122 105.025C478.628 105.272 480.789 97.8642 480.357 93.0494H482.332V100.457C482.332 102.37 482.764 103.543 484.74 103.481C489.184 103.358 487.517 97.2469 487.826 93.0494H489.74L489.801 104.778H487.949C487.888 104.16 488.011 103.235 487.826 102.741C487.147 104.099 486.098 104.963 484.122 105.025Z" fill="black"/>
<path d="M499.616 95.9506C499.431 93.8518 494.307 93.6049 494.246 95.9506C495.172 99.2222 501.345 96.6913 501.591 101.506C501.838 106.321 492.332 106.074 491.9 102L493.628 101.691C493.875 103.914 499.616 104.469 499.678 101.691C499.061 98.2346 492.703 100.765 492.394 96.1358C492.147 92.6173 497.456 92.2469 499.925 93.5432C500.666 93.9753 501.221 94.716 501.406 95.7037" fill="black"/>
<path d="M506.036 101.877C505.912 103.358 507.147 103.667 508.382 103.235V104.716C506.345 105.333 504.061 105.025 504.061 102.309V94.4692H502.703V93.0494H504.184L504.74 90.3951H506.036V93.0494H508.196V94.4692H506.036V101.877Z" fill="black"/>
<path d="M514.74 92.8025C518.567 92.7407 519.987 95.0864 519.987 98.9136C520.048 102.802 518.32 105.025 514.678 105.025C511.036 105.025 509.554 102.617 509.493 98.9136C509.493 94.8395 511.221 92.8025 514.74 92.8025ZM514.678 103.543C517.394 103.605 517.949 101.63 517.949 98.9136C517.949 96.2592 517.456 94.2839 514.801 94.2839C512.147 94.2839 511.53 96.2592 511.53 98.9136C511.53 101.568 512.147 103.481 514.678 103.543Z" fill="black"/>
<path d="M533.875 94.3457C529.74 94.5309 531.53 100.827 531.159 104.778H529.246V97.3086C529.246 95.5185 528.937 94.2222 527.085 94.3457C523.011 94.5926 524.74 100.765 524.369 104.778H522.456L522.394 93.0494H524.246C524.308 93.6667 524.184 94.5309 524.369 95.0247C524.987 92.3086 530.48 91.9383 530.974 95.0247C531.653 93.7284 532.641 92.8642 534.554 92.8025C539.801 92.679 537.456 100.148 537.949 104.778H536.036V97.3086C536.036 95.5185 535.727 94.284 533.875 94.3457Z" fill="black"/>
<path d="M545.542 92.8025C549.431 92.8025 550.851 95.3951 550.727 99.3457H542.394C542.394 101.815 543.258 103.482 545.666 103.543C547.27 103.605 548.32 102.802 548.69 101.753L550.419 102.247C549.74 103.975 548.135 105.025 545.666 105.025C542.085 105.025 540.233 102.741 540.295 98.8519C540.357 95.0864 541.9 92.8025 545.542 92.8025ZM548.752 97.8025C549.122 94.0988 544.061 93.0494 542.764 96.0741C542.579 96.5062 542.394 97.1235 542.394 97.8025H548.752Z" fill="black"/>
<path d="M558.752 94.7161C553.937 93.7284 555.48 100.333 555.233 104.778H553.258L553.196 93.0494H555.048C555.11 93.7901 554.987 94.8395 555.172 95.4568C555.542 93.7901 556.591 92.4321 558.752 92.9259V94.7161Z" fill="black"/>
<path d="M711 48C711 46.4087 711.632 44.8826 712.757 43.7574C713.883 42.6321 715.409 42 717 42H865C866.591 42 868.117 42.6321 869.243 43.7574C870.368 44.8826 871 46.4087 871 48V156C871 157.591 870.368 159.117 869.243 160.243C868.117 161.368 866.591 162 865 162H717C715.409 162 713.883 161.368 712.757 160.243C711.632 159.117 711 157.591 711 156V48Z" fill="white" stroke="#3A414A" stroke-width="2"/>
<path d="M861 52H846V72H861V52Z" fill="white" stroke="#3A414A"/>
<path d="M851 55.33H841V58.67H851V55.33ZM851 65.33H841V68.67H851V65.33Z" fill="white" stroke="#3A414A"/>
<path d="M762.054 104.778L762.178 91.321C760.758 96.0123 758.845 100.272 757.24 104.778H755.82L750.82 91.321L750.882 104.778H749.091V89.4691H751.807L756.561 102.494C757.857 97.8642 759.709 93.8518 761.252 89.4691H763.906V104.778H762.054Z" fill="black"/>
<path d="M774.4 102.556C773.474 103.852 772.486 105.086 770.203 105.025C767.98 104.963 766.622 103.728 766.622 101.506C766.561 97.5555 770.511 97.6172 774.338 97.6172C774.524 95.4568 773.783 94.2839 771.807 94.2839C770.326 94.3456 769.277 94.716 769.215 96.1975L767.178 96.0123C767.486 93.7284 769.215 92.8024 771.869 92.8024C774.647 92.8024 776.314 94.037 776.314 96.753V101.815C776.252 103.049 776.746 103.79 778.042 103.481V104.716C776.128 105.272 774.277 104.593 774.4 102.556ZM768.659 101.506C768.659 102.741 769.4 103.543 770.635 103.543C773.166 103.358 774.524 101.753 774.338 98.9753C771.684 99.0987 768.659 98.6666 768.659 101.506Z" fill="black"/>
<path d="M785.264 92.8025C790.758 92.5556 788.536 99.963 788.968 104.778H786.993V97.3086C786.993 95.3951 786.499 94.2839 784.585 94.3457C780.141 94.4691 781.869 100.642 781.561 104.778H779.585L779.524 93.0494H781.375C781.437 93.6667 781.314 94.5309 781.499 95.0247C782.178 93.6667 783.289 92.8642 785.264 92.8025Z" fill="black"/>
<path d="M799.091 102.556C798.166 103.852 797.178 105.086 794.894 105.025C792.672 104.963 791.314 103.728 791.314 101.506C791.252 97.5555 795.203 97.6172 799.03 97.6172C799.215 95.4568 798.474 94.2839 796.499 94.2839C795.017 94.3456 793.968 94.716 793.906 96.1975L791.869 96.0123C792.178 93.7284 793.906 92.8024 796.561 92.8024C799.338 92.8024 801.005 94.037 801.005 96.753V101.815C800.943 103.049 801.437 103.79 802.733 103.481V104.716C800.82 105.272 798.968 104.593 799.091 102.556ZM793.351 101.506C793.351 102.741 794.091 103.543 795.326 103.543C797.857 103.358 799.215 101.753 799.03 98.9753C796.375 99.0987 793.351 98.6666 793.351 101.506Z" fill="black"/>
<path d="M813.659 93.0494C813.042 100.765 816.19 111.136 806.869 109.16C805.449 108.79 804.524 107.926 804.153 106.506L806.128 106.197C807.054 109.099 812.301 108.173 811.622 104.469V102.617C810.943 103.914 809.832 104.839 807.857 104.839C804.524 104.839 803.659 102.309 803.659 98.9135C803.659 95.4568 804.647 92.9259 808.042 92.8642C809.832 92.8024 811.005 93.8518 811.684 95.0247C811.746 94.4074 811.684 93.6049 811.807 93.0494H813.659ZM808.536 103.42C810.758 103.42 811.622 101.444 811.622 98.9135C811.622 96.321 810.758 94.2839 808.536 94.2839C806.128 94.2839 805.696 96.3827 805.696 98.9135C805.696 101.444 806.067 103.42 808.536 103.42Z" fill="black"/>
<path d="M821.252 92.8024C825.141 92.8024 826.561 95.395 826.437 99.3456H818.104C818.104 101.815 818.968 103.481 821.375 103.543C822.98 103.605 824.03 102.802 824.4 101.753L826.128 102.247C825.449 103.975 823.845 105.025 821.375 105.025C817.795 105.025 815.943 102.741 816.005 98.8518C816.067 95.0864 817.61 92.8024 821.252 92.8024ZM824.462 97.8024C824.832 94.0987 819.77 93.0493 818.474 96.074C818.289 96.5061 818.104 97.1234 818.104 97.8024H824.462Z" fill="black"/>
<path d="M834.462 94.716C829.647 93.7284 831.19 100.333 830.943 104.778H828.968L828.906 93.0493H830.758C830.82 93.7901 830.696 94.8395 830.882 95.4568C831.252 93.7901 832.301 92.4321 834.462 92.9259V94.716Z" fill="black"/>
<path d="M151 308C151 306.409 151.632 304.883 152.757 303.757C153.883 302.632 155.409 302 157 302H305C306.591 302 308.117 302.632 309.243 303.757C310.368 304.883 311 306.409 311 308V416C311 417.591 310.368 419.117 309.243 420.243C308.117 421.368 306.591 422 305 422H157C155.409 422 153.883 421.368 152.757 420.243C151.632 419.117 151 417.591 151 416V308Z" fill="white" stroke="#3A414A" stroke-width="2"/>
<path d="M301 312H286V332H301V312Z" fill="white" stroke="#3A414A"/>
<path d="M291 315.33H281V318.67H291V315.33ZM291 325.33H281V328.67H291V325.33Z" fill="white" stroke="#3A414A"/>
<path d="M194.616 349.469C199.987 349.531 206.406 348.543 206.406 354.099C206.406 358.914 201.653 359.037 196.653 358.79V364.778H194.616V349.469ZM196.653 357.185C200.172 357.185 204.308 357.864 204.308 354.099C204.308 350.457 200.11 351.198 196.653 351.136V357.185Z" fill="black"/>
<path d="M214.616 354.716C209.801 353.728 211.345 360.333 211.098 364.778H209.122L209.061 353.049H210.912C210.974 353.79 210.851 354.84 211.036 355.457C211.406 353.79 212.456 352.432 214.616 352.926V354.716Z" fill="black"/>
<path d="M221.098 352.802C224.925 352.741 226.345 355.086 226.345 358.914C226.406 362.802 224.678 365.025 221.036 365.025C217.394 365.025 215.912 362.617 215.851 358.914C215.851 354.84 217.579 352.802 221.098 352.802ZM221.036 363.543C223.752 363.605 224.307 361.63 224.307 358.914C224.307 356.259 223.814 354.284 221.159 354.284C218.505 354.284 217.888 356.259 217.888 358.914C217.888 361.568 218.505 363.482 221.036 363.543Z" fill="black"/>
<path d="M232.517 352.802C234.431 352.802 235.48 353.605 236.221 354.84L236.159 348.667H238.135L238.196 364.778H236.345C236.221 364.161 236.345 363.358 236.159 362.864C235.542 364.284 234.431 365.025 232.517 365.025C229.246 365.025 228.258 362.617 228.196 358.975C228.196 354.901 229.616 352.802 232.517 352.802ZM233.073 354.284C230.604 354.284 230.233 356.383 230.233 358.914C230.233 361.383 230.604 363.482 233.011 363.482C235.604 363.482 236.159 361.506 236.159 358.79C236.159 356.198 235.604 354.222 233.073 354.284Z" fill="black"/>
<path d="M244.801 365.025C239.307 365.272 241.468 357.864 241.036 353.049H243.011V360.457C243.011 362.37 243.443 363.543 245.419 363.482C249.863 363.358 248.196 357.247 248.505 353.049H250.419L250.48 364.778H248.628C248.567 364.161 248.69 363.235 248.505 362.741C247.826 364.099 246.777 364.963 244.801 365.025Z" fill="black"/>
<path d="M257.888 354.346C255.419 354.346 254.925 356.383 254.925 358.852C254.925 361.321 255.48 363.482 257.888 363.482C259.369 363.482 260.419 362.617 260.542 361.136L262.517 361.259C262.147 363.543 260.604 365.025 257.949 365.025C254.307 365.025 253.258 362.494 252.888 358.914C252.27 353.173 259.122 350.827 261.962 354.963C262.209 355.395 262.27 355.827 262.394 356.321L260.419 356.506C260.172 355.21 259.431 354.346 257.888 354.346Z" fill="black"/>
<path d="M266.715 361.877C266.591 363.358 267.826 363.667 269.061 363.235V364.716C267.024 365.333 264.74 365.025 264.74 362.309V354.469H263.382V353.049H264.863L265.419 350.395H266.715V353.049H268.875V354.469H266.715V361.877Z" fill="black"/>
<path d="M431 308C431 306.409 431.632 304.883 432.757 303.757C433.883 302.632 435.409 302 437 302H585C586.591 302 588.117 302.632 589.243 303.757C590.368 304.883 591 306.409 591 308V416C591 417.591 590.368 419.117 589.243 420.243C588.117 421.368 586.591 422 585 422H437C435.409 422 433.883 421.368 432.757 420.243C431.632 419.117 431 417.591 431 416V308Z" fill="white" stroke="#3A414A" stroke-width="2"/>
<path d="M581 312H566V332H581V312Z" fill="white" stroke="#3A414A"/>
<path d="M571 315.33H561V318.67H571V315.33ZM571 325.33H561V328.67H571V325.33Z" fill="white" stroke="#3A414A"/>
<path d="M491.314 349.284C496.314 349.284 498.906 352.123 498.906 357.062C498.906 361.938 496.19 365.025 491.314 365.025C486.314 365.025 483.721 362 483.721 357.062C483.721 352.123 486.314 349.284 491.314 349.284ZM491.314 363.296C495.203 363.296 496.807 360.765 496.807 357.062C496.807 353.358 495.017 350.951 491.314 350.951C487.548 350.951 485.82 353.358 485.82 357.062C485.82 360.765 487.548 363.235 491.314 363.296Z" fill="black"/>
<path d="M506.993 354.716C502.178 353.728 503.721 360.333 503.474 364.778H501.499L501.437 353.049H503.289C503.351 353.79 503.227 354.84 503.412 355.457C503.783 353.79 504.832 352.432 506.993 352.926V354.716Z" fill="black"/>
<path d="M512.548 352.802C514.462 352.802 515.511 353.605 516.252 354.84L516.19 348.667H518.166L518.227 364.778H516.375C516.252 364.161 516.375 363.358 516.19 362.864C515.573 364.284 514.462 365.025 512.548 365.025C509.277 365.025 508.289 362.617 508.227 358.975C508.227 354.901 509.647 352.802 512.548 352.802ZM513.104 354.284C510.635 354.284 510.264 356.383 510.264 358.914C510.264 361.383 510.635 363.482 513.042 363.482C515.635 363.482 516.19 361.506 516.19 358.79C516.19 356.198 515.635 354.222 513.104 354.284Z" fill="black"/>
<path d="M525.82 352.802C529.709 352.802 531.128 355.395 531.005 359.346H522.672C522.672 361.815 523.536 363.482 525.943 363.543C527.548 363.605 528.598 362.802 528.968 361.753L530.696 362.247C530.017 363.975 528.412 365.025 525.943 365.025C522.363 365.025 520.511 362.741 520.573 358.852C520.635 355.086 522.178 352.802 525.82 352.802ZM529.03 357.802C529.4 354.099 524.338 353.049 523.042 356.074C522.857 356.506 522.672 357.123 522.672 357.802H529.03Z" fill="black"/>
<path d="M539.03 354.716C534.215 353.728 535.758 360.333 535.511 364.778H533.536L533.474 353.049H535.326C535.388 353.79 535.264 354.84 535.449 355.457C535.82 353.79 536.869 352.432 539.03 352.926V354.716Z" fill="black"/>
<path d="M151 568C151 566.409 151.632 564.883 152.757 563.757C153.883 562.632 155.409 562 157 562H305C306.591 562 308.117 562.632 309.243 563.757C310.368 564.883 311 566.409 311 568V676C311 677.591 310.368 679.117 309.243 680.243C308.117 681.368 306.591 682 305 682H157C155.409 682 153.883 681.368 152.757 680.243C151.632 679.117 151 677.591 151 676V568Z" fill="white" stroke="#3A414A" stroke-width="2"/>
<path d="M301 572H286V592H301V572Z" fill="white" stroke="#3A414A"/>
<path d="M291 575.33H281V578.67H291V575.33ZM291 585.33H281V588.67H291V585.33Z" fill="white" stroke="#3A414A"/>
<path d="M223.166 613.728C222.548 612 221.005 610.951 218.659 610.951C215.017 610.951 213.289 613.42 213.289 617.062C213.289 620.765 215.079 623.296 218.783 623.296C221.437 623.296 222.61 621.815 223.598 620.086L225.264 620.951C224.153 623.296 222.116 625.025 218.659 625.025C213.721 625.025 211.437 621.938 211.19 617.062C210.82 610.642 217.301 607.617 222.733 610.21C223.906 610.765 224.647 611.815 225.141 613.049" fill="black"/>
<path d="M234.77 622.556C233.845 623.852 232.857 625.086 230.573 625.025C228.351 624.963 226.993 623.728 226.993 621.506C226.931 617.556 230.882 617.617 234.709 617.617C234.894 615.457 234.153 614.284 232.178 614.284C230.696 614.346 229.647 614.716 229.585 616.198L227.548 616.012C227.857 613.728 229.585 612.802 232.24 612.802C235.017 612.802 236.684 614.037 236.684 616.753V621.815C236.622 623.049 237.116 623.79 238.412 623.481V624.716C236.499 625.272 234.647 624.593 234.77 622.556ZM229.03 621.506C229.03 622.741 229.77 623.543 231.005 623.543C233.536 623.358 234.894 621.753 234.709 618.975C232.054 619.099 229.03 618.667 229.03 621.506Z" fill="black"/>
<path d="M245.449 614.716C240.635 613.728 242.178 620.333 241.931 624.778H239.956L239.894 613.049H241.746C241.808 613.79 241.684 614.84 241.869 615.457C242.24 613.79 243.289 612.432 245.449 612.926V614.716Z" fill="black"/>
<path d="M249.4 621.877C249.277 623.358 250.511 623.667 251.746 623.235V624.716C249.709 625.333 247.425 625.025 247.425 622.309V614.469H246.067V613.049H247.548L248.104 610.395H249.4V613.049H251.561V614.469H249.4V621.877Z" fill="black"/>
<path d="M431 568C431 566.409 431.632 564.883 432.757 563.757C433.883 562.632 435.409 562 437 562H585C586.591 562 588.117 562.632 589.243 563.757C590.368 564.883 591 566.409 591 568V676C591 677.591 590.368 679.117 589.243 680.243C588.117 681.368 586.591 682 585 682H437C435.409 682 433.883 681.368 432.757 680.243C431.632 679.117 431 677.591 431 676V568Z" fill="white" stroke="#3A414A" stroke-width="2"/>
<path d="M581 572H566V592H581V572Z" fill="white" stroke="#3A414A"/>
<path d="M571 575.33H561V578.67H571V575.33ZM571 585.33H561V588.67H571V585.33Z" fill="white" stroke="#3A414A"/>
<path d="M466.159 611.198V616.877H474.678V618.605H466.159V624.778H464.122V609.469H474.925V611.198H466.159Z" fill="black"/>
<path d="M481.962 612.802C485.851 612.802 487.27 615.395 487.147 619.346H478.814C478.814 621.815 479.678 623.482 482.085 623.543C483.69 623.605 484.74 622.802 485.11 621.753L486.838 622.247C486.159 623.975 484.554 625.025 482.085 625.025C478.505 625.025 476.653 622.741 476.715 618.852C476.777 615.086 478.32 612.802 481.962 612.802ZM485.172 617.802C485.542 614.099 480.48 613.049 479.184 616.074C478.999 616.506 478.814 617.123 478.814 617.802H485.172Z" fill="black"/>
<path d="M494.307 612.802C498.196 612.802 499.616 615.395 499.493 619.346H491.159C491.159 621.815 492.024 623.482 494.431 623.543C496.036 623.605 497.085 622.802 497.456 621.753L499.184 622.247C498.505 623.975 496.9 625.025 494.431 625.025C490.851 625.025 488.999 622.741 489.061 618.852C489.122 615.086 490.666 612.802 494.307 612.802ZM497.517 617.802C497.888 614.099 492.826 613.049 491.53 616.074C491.345 616.506 491.159 617.123 491.159 617.802H497.517Z" fill="black"/>
<path d="M505.727 612.802C507.641 612.802 508.69 613.605 509.431 614.84L509.369 608.667H511.345L511.406 624.778H509.554C509.431 624.161 509.554 623.358 509.369 622.864C508.752 624.284 507.641 625.025 505.727 625.025C502.456 625.025 501.468 622.617 501.406 618.975C501.406 614.901 502.826 612.802 505.727 612.802ZM506.283 614.284C503.814 614.284 503.443 616.383 503.443 618.914C503.443 621.383 503.814 623.482 506.221 623.482C508.814 623.482 509.369 621.506 509.369 618.79C509.369 616.198 508.814 614.222 506.283 614.284Z" fill="black"/>
<path d="M519.925 612.802C523.196 612.802 524.184 615.21 524.246 618.852C524.246 622.926 522.826 625.025 519.925 625.025C518.011 624.963 516.9 624.346 516.283 622.926L516.159 624.778H514.246L514.307 608.667H516.283V614.901C516.9 613.482 518.011 612.802 519.925 612.802ZM519.431 623.543C521.9 623.543 522.209 621.444 522.209 618.914C522.209 616.444 521.9 614.284 519.431 614.346C516.838 614.346 516.283 616.321 516.283 619.037C516.283 621.691 516.9 623.543 519.431 623.543Z" fill="black"/>
<path d="M533.875 622.556C532.949 623.852 531.962 625.086 529.678 625.025C527.456 624.963 526.098 623.728 526.098 621.506C526.036 617.556 529.987 617.617 533.814 617.617C533.999 615.457 533.258 614.284 531.283 614.284C529.801 614.346 528.752 614.716 528.69 616.198L526.653 616.012C526.962 613.728 528.69 612.802 531.345 612.802C534.122 612.802 535.789 614.037 535.789 616.753V621.815C535.727 623.049 536.221 623.79 537.517 623.482V624.716C535.604 625.272 533.752 624.593 533.875 622.556ZM528.135 621.506C528.135 622.741 528.875 623.543 530.11 623.543C532.641 623.358 533.999 621.753 533.814 618.975C531.159 619.099 528.135 618.667 528.135 621.506Z" fill="black"/>
<path d="M543.443 614.346C540.974 614.346 540.48 616.383 540.48 618.852C540.48 621.321 541.036 623.482 543.443 623.482C544.925 623.482 545.974 622.617 546.098 621.136L548.073 621.259C547.703 623.543 546.159 625.025 543.505 625.025C539.863 625.025 538.814 622.494 538.443 618.914C537.826 613.173 544.678 610.827 547.517 614.963C547.764 615.395 547.826 615.827 547.949 616.321L545.974 616.506C545.727 615.21 544.986 614.346 543.443 614.346Z" fill="black"/>
<path d="M557.456 624.778L553.505 619.407L552.085 620.58V624.778H550.11V608.667H552.085V618.728L557.209 613.049H559.493L554.74 618.111L559.801 624.778H557.456Z" fill="black"/>
<path d="M711 568C711 566.409 711.632 564.883 712.757 563.757C713.883 562.632 715.409 562 717 562H865C866.591 562 868.117 562.632 869.243 563.757C870.368 564.883 871 566.409 871 568V676C871 677.591 870.368 679.117 869.243 680.243C868.117 681.368 866.591 682 865 682H717C715.409 682 713.883 681.368 712.757 680.243C711.632 679.117 711 677.591 711 676V568Z" fill="white" stroke="#3A414A" stroke-width="2"/>
<path d="M861 572H846V592H861V572Z" fill="white" stroke="#3A414A"/>
<path d="M851 575.33H841V578.67H851V575.33ZM851 585.33H841V588.67H851V585.33Z" fill="white" stroke="#3A414A"/>
<path d="M723.135 609.469C728.505 609.531 734.925 608.543 734.925 614.099C734.925 618.914 730.172 619.037 725.172 618.79V624.778H723.135V609.469ZM725.172 617.185C728.69 617.185 732.826 617.864 732.826 614.099C732.826 610.457 728.628 611.198 725.172 611.136V617.185Z" fill="black"/>
<path d="M743.135 614.716C738.32 613.728 739.863 620.333 739.616 624.778H737.641L737.579 613.049H739.431C739.493 613.79 739.369 614.84 739.554 615.457C739.925 613.79 740.974 612.432 743.135 612.926V614.716Z" fill="black"/>
<path d="M749.616 612.802C753.443 612.741 754.863 615.086 754.863 618.914C754.925 622.802 753.196 625.025 749.554 625.025C745.912 625.025 744.431 622.617 744.369 618.914C744.369 614.84 746.098 612.802 749.616 612.802ZM749.554 623.543C752.27 623.605 752.826 621.63 752.826 618.914C752.826 616.259 752.332 614.284 749.678 614.284C747.024 614.284 746.406 616.259 746.406 618.914C746.406 621.568 747.024 623.482 749.554 623.543Z" fill="black"/>
<path d="M761.036 612.802C762.949 612.802 763.999 613.605 764.74 614.84L764.678 608.667H766.653L766.715 624.778H764.863C764.74 624.161 764.863 623.358 764.678 622.864C764.061 624.284 762.949 625.025 761.036 625.025C757.764 625.025 756.777 622.617 756.715 618.975C756.715 614.901 758.135 612.802 761.036 612.802ZM761.591 614.284C759.122 614.284 758.752 616.383 758.752 618.914C758.752 621.383 759.122 623.482 761.53 623.482C764.122 623.482 764.678 621.506 764.678 618.79C764.678 616.198 764.122 614.222 761.591 614.284Z" fill="black"/>
<path d="M773.32 625.025C767.826 625.272 769.986 617.864 769.554 613.049H771.53V620.457C771.53 622.37 771.962 623.543 773.937 623.481C778.382 623.358 776.715 617.247 777.024 613.049H778.937L778.999 624.778H777.147C777.085 624.161 777.209 623.235 777.024 622.741C776.345 624.099 775.295 624.963 773.32 625.025Z" fill="black"/>
<path d="M786.406 614.346C783.937 614.346 783.443 616.383 783.443 618.852C783.443 621.321 783.999 623.482 786.406 623.482C787.888 623.482 788.937 622.617 789.061 621.136L791.036 621.259C790.665 623.543 789.122 625.025 786.468 625.025C782.826 625.025 781.777 622.494 781.406 618.914C780.789 613.173 787.641 610.827 790.48 614.963C790.727 615.395 790.789 615.827 790.912 616.321L788.937 616.506C788.69 615.21 787.949 614.346 786.406 614.346Z" fill="black"/>
<path d="M795.233 621.877C795.11 623.358 796.345 623.667 797.579 623.235V624.716C795.542 625.333 793.258 625.025 793.258 622.309V614.469H791.9V613.049H793.382L793.937 610.395H795.233V613.049H797.394V614.469H795.233V621.877Z" fill="black"/>
<path d="M809.184 613.111C808.875 610.148 801.591 609.778 801.53 613.235C802.394 617.864 811.283 614.099 811.591 620.58C811.777 625.395 804.122 625.951 800.789 623.975C799.74 623.358 799.061 622.37 798.752 621.136L800.789 620.704C801.098 624.161 809.493 624.593 809.493 620.642C809.493 615.827 799.925 619.778 799.493 613.358C799.184 608.296 808.443 608.173 810.542 611.259C810.851 611.691 811.036 612.247 811.221 612.802" fill="black"/>
<path d="M816.221 621.877C816.098 623.358 817.332 623.667 818.567 623.235V624.716C816.53 625.333 814.246 625.025 814.246 622.309V614.469H812.888V613.049H814.369L814.925 610.395H816.221V613.049H818.382V614.469H816.221V621.877Z" fill="black"/>
<path d="M827.456 622.556C826.53 623.852 825.542 625.086 823.258 625.025C821.036 624.963 819.678 623.728 819.678 621.506C819.616 617.556 823.567 617.617 827.394 617.617C827.579 615.457 826.838 614.284 824.863 614.284C823.382 614.346 822.332 614.716 822.27 616.198L820.233 616.012C820.542 613.728 822.27 612.802 824.925 612.802C827.703 612.802 829.369 614.037 829.369 616.753V621.815C829.307 623.049 829.801 623.79 831.098 623.482V624.716C829.184 625.272 827.332 624.593 827.456 622.556ZM821.715 621.506C821.715 622.741 822.456 623.543 823.69 623.543C826.221 623.358 827.579 621.753 827.394 618.975C824.74 619.099 821.715 618.667 821.715 621.506Z" fill="black"/>
<path d="M834.74 621.877C834.616 623.358 835.851 623.667 837.085 623.235V624.716C835.048 625.333 832.764 625.025 832.764 622.309V614.469H831.406V613.049H832.888L833.443 610.395H834.74V613.049H836.9V614.469H834.74V621.877Z" fill="black"/>
<path d="M842.456 625.025C836.962 625.272 839.122 617.864 838.69 613.049H840.666V620.457C840.666 622.37 841.098 623.543 843.073 623.481C847.517 623.358 845.851 617.247 846.159 613.049H848.073L848.135 624.778H846.283C846.221 624.161 846.345 623.235 846.159 622.741C845.48 624.099 844.431 624.963 842.456 625.025Z" fill="black"/>
<path d="M857.949 615.951C857.764 613.852 852.641 613.605 852.579 615.951C853.505 619.222 859.678 616.691 859.925 621.506C860.172 626.321 850.666 626.074 850.233 622L851.962 621.691C852.209 623.914 857.949 624.469 858.011 621.691C857.394 618.235 851.036 620.765 850.727 616.136C850.48 612.617 855.789 612.247 858.258 613.543C858.999 613.975 859.554 614.716 859.74 615.704" fill="black"/>
<path d="M711 308C711 306.409 711.632 304.883 712.757 303.757C713.883 302.632 715.409 302 717 302H865C866.591 302 868.117 302.632 869.243 303.757C870.368 304.883 871 306.409 871 308V416C871 417.591 870.368 419.117 869.243 420.243C868.117 421.368 866.591 422 865 422H717C715.409 422 713.883 421.368 712.757 420.243C711.632 419.117 711 417.591 711 416V308Z" fill="white" stroke="#3A414A" stroke-width="2"/>
<path d="M861 312H846V332H861V312Z" fill="white" stroke="#3A414A"/>
<path d="M851 315.33H841V318.67H851V315.33ZM851 325.33H841V328.67H851V325.33Z" fill="white" stroke="#3A414A"/>
<path d="M745.357 349.469C752.641 349.037 758.69 349.963 758.505 357C758.32 361.815 755.851 364.778 751.036 364.778H745.357V349.469ZM747.394 363.111C752.888 363.605 756.406 362.123 756.406 357C756.406 351.877 752.702 350.765 747.394 351.136V363.111Z" fill="black"/>
<path d="M768.196 362.556C767.27 363.852 766.283 365.086 763.999 365.025C761.777 364.963 760.419 363.728 760.419 361.506C760.357 357.556 764.307 357.617 768.135 357.617C768.32 355.457 767.579 354.284 765.604 354.284C764.122 354.346 763.073 354.716 763.011 356.198L760.974 356.012C761.283 353.728 763.011 352.802 765.665 352.802C768.443 352.802 770.11 354.037 770.11 356.753V361.815C770.048 363.049 770.542 363.79 771.838 363.482V364.716C769.925 365.272 768.073 364.593 768.196 362.556ZM762.456 361.506C762.456 362.741 763.196 363.543 764.431 363.543C766.962 363.358 768.32 361.753 768.135 358.975C765.48 359.099 762.456 358.667 762.456 361.506Z" fill="black"/>
<path d="M775.48 361.877C775.357 363.358 776.591 363.667 777.826 363.235V364.716C775.789 365.333 773.505 365.025 773.505 362.309V354.469H772.147V353.049H773.628L774.184 350.395H775.48V353.049H777.641V354.469H775.48V361.877Z" fill="black"/>
<path d="M786.715 362.556C785.789 363.852 784.801 365.086 782.517 365.025C780.295 364.963 778.937 363.728 778.937 361.506C778.875 357.556 782.826 357.617 786.653 357.617C786.838 355.457 786.098 354.284 784.122 354.284C782.641 354.346 781.591 354.716 781.53 356.198L779.493 356.012C779.801 353.728 781.53 352.802 784.184 352.802C786.962 352.802 788.628 354.037 788.628 356.753V361.815C788.567 363.049 789.061 363.79 790.357 363.482V364.716C788.443 365.272 786.591 364.593 786.715 362.556ZM780.974 361.506C780.974 362.741 781.715 363.543 782.949 363.543C785.48 363.358 786.838 361.753 786.653 358.975C783.999 359.099 780.974 358.667 780.974 361.506Z" fill="black"/>
<path d="M797.456 352.802C800.727 352.802 801.715 355.21 801.777 358.852C801.777 362.926 800.357 365.025 797.456 365.025C795.542 364.963 794.431 364.346 793.814 362.926L793.69 364.778H791.777L791.838 348.667H793.814V354.901C794.431 353.482 795.542 352.802 797.456 352.802ZM796.962 363.543C799.431 363.543 799.74 361.444 799.74 358.914C799.74 356.444 799.431 354.284 796.962 354.346C794.369 354.346 793.814 356.321 793.814 359.037C793.814 361.691 794.431 363.543 796.962 363.543Z" fill="black"/>
<path d="M811.406 362.556C810.48 363.852 809.493 365.086 807.209 365.025C804.986 364.963 803.628 363.728 803.628 361.506C803.567 357.556 807.517 357.617 811.344 357.617C811.53 355.457 810.789 354.284 808.814 354.284C807.332 354.346 806.283 354.716 806.221 356.198L804.184 356.012C804.493 353.728 806.221 352.802 808.875 352.802C811.653 352.802 813.32 354.037 813.32 356.753V361.815C813.258 363.049 813.752 363.79 815.048 363.482V364.716C813.135 365.272 811.283 364.593 811.406 362.556ZM805.665 361.506C805.665 362.741 806.406 363.543 807.641 363.543C810.172 363.358 811.53 361.753 811.344 358.975C808.69 359.099 805.665 358.667 805.665 361.506Z" fill="black"/>
<path d="M823.382 355.951C823.196 353.852 818.073 353.605 818.011 355.951C818.937 359.222 825.11 356.691 825.357 361.506C825.604 366.321 816.098 366.074 815.665 362L817.394 361.691C817.641 363.914 823.382 364.469 823.443 361.691C822.826 358.235 816.468 360.765 816.159 356.136C815.912 352.617 821.221 352.247 823.69 353.543C824.431 353.975 824.986 354.716 825.172 355.704" fill="black"/>
<path d="M832.332 352.802C836.221 352.802 837.641 355.395 837.517 359.346H829.184C829.184 361.815 830.048 363.482 832.456 363.543C834.061 363.605 835.11 362.802 835.48 361.753L837.209 362.247C836.53 363.975 834.925 365.025 832.456 365.025C828.875 365.025 827.023 362.741 827.085 358.852C827.147 355.086 828.69 352.802 832.332 352.802ZM835.542 357.802C835.912 354.099 830.851 353.049 829.554 356.074C829.369 356.506 829.184 357.123 829.184 357.802H835.542Z" fill="black"/>
<path d="M511 221V164" stroke="#3A414A" stroke-width="2"/>
<path d="M511.97 222H510.02V220.97H511.97V222ZM511.97 164.03H510.02V163H511.97V164.03Z" fill="#3A414A" stroke="#3A414A" stroke-width="0.05"/>
<path d="M511 273V300" stroke="#3A414A" stroke-width="2"/>
<path d="M511.97 273.03H510.02V272H511.97V273.03ZM511.97 301H510.02V299.97H511.97V301Z" fill="#3A414A" stroke="#3A414A" stroke-width="0.05"/>
<path d="M80 362H77C75.4087 362 73.8826 361.368 72.7574 360.243C71.6321 359.117 71 357.591 71 356V108C71 106.409 71.6321 104.883 72.7574 103.757C73.8826 102.632 75.4087 102 77 102H149" stroke="#3A414A" stroke-width="2"/>
<path d="M81 362.98H79.97V361.03H81V362.98ZM150 102.98H148.97V101.02H150V102.98Z" fill="#3A414A" stroke="#3A414A" stroke-width="0.05"/>
<path d="M132 362H149" stroke="#3A414A" stroke-width="2"/>
<path d="M132.03 362.98H131V361.03H132.03V362.98ZM150 362.98H148.97V361.03H150V362.98Z" fill="#3A414A" stroke="#3A414A" stroke-width="0.05"/>
<path d="M429 102H402.6C401.009 102 399.483 102.632 398.357 103.757C397.232 104.883 396.6 106.409 396.6 108V176C396.6 177.591 395.968 179.117 394.843 180.243C393.717 181.368 392.191 182 390.6 182H77C75.4087 182 73.8826 182.632 72.7574 183.757C71.6321 184.883 71 186.409 71 188V356C71 357.591 71.6321 359.117 72.7574 360.243C73.8826 361.368 75.4087 362 77 362H80" stroke="#3A414A" stroke-width="2"/>
<path d="M430 102.98H428.97V101.02H430V102.98ZM81 362.98H79.97V361H81V362.98Z" fill="#3A414A" stroke="#3A414A" stroke-width="0.05"/>
<path d="M429 362H402.6C401.009 362 399.483 361.368 398.357 360.243C397.232 359.117 396.6 357.591 396.6 356V288C396.6 286.409 395.968 284.883 394.843 283.757C393.717 282.632 392.191 282 390.6 282H77C75.4087 282 73.8826 282.632 72.7574 283.757C71.6321 284.883 71 286.409 71 288V356C71 357.591 71.6321 359.117 72.7574 360.243C73.8826 361.368 75.4087 362 77 362H80" stroke="#3A414A" stroke-width="2"/>
<path d="M430 362.98H428.97V361H430V362.98ZM81 362.98H79.97V361H81V362.98Z" fill="#3A414A" stroke="#3A414A" stroke-width="0.05"/>
<path d="M149 622H77C75.4087 622 73.8826 621.368 72.7574 620.243C71.6321 619.117 71 617.591 71 616V368C71 366.409 71.6321 364.883 72.7574 363.757C73.8826 362.632 75.4087 362 77 362H80" stroke="#3A414A" stroke-width="2"/>
<path d="M150 622.98H148.97V621H150V622.98ZM81 362.98H79.97V361H81V362.98Z" fill="#3A414A" stroke="#3A414A" stroke-width="0.05"/>
<path d="M769 232H687C685.409 232 683.883 231.368 682.757 230.243C681.632 229.117 681 227.591 681 226V138.37C681 136.779 680.368 135.253 679.243 134.127C678.117 133.002 676.591 132.37 675 132.37H593" stroke="#3A414A" stroke-width="2"/>
<path d="M770 231.95L770.03 232.98H768.97V231.02H770.11L770 231.95ZM593.03 133.35H592V131.4H593.03V133.35Z" fill="#3A414A" stroke="#3A414A" stroke-width="0.05"/>
<path d="M749 232H676.318C674.908 232 673.555 232.632 672.558 233.757C671.56 234.883 671 236.409 671 238V356C671 357.591 670.44 359.117 669.442 360.243C668.445 361.368 667.092 362 665.682 362H593" stroke="#3A414A" stroke-width="2"/>
<path d="M770 231.95L770.03 232.98H768.97V231.02H770.11L770 231.95ZM593.03 362.98H592V361H593.03V362.98Z" fill="#3A414A" stroke="#3A414A" stroke-width="0.05"/>
<path d="M811 232C811 243.05 802.05 252 791 252C779.95 252 771 243.05 771 232C771 220.95 779.95 212 791 212C802.05 212 811 220.95 811 232Z" fill="white" stroke="#3A414A" stroke-width="2"/>
<path d="M791 210V164" stroke="#3A414A" stroke-width="2"/>
<path d="M791.97 211.1L791.05 211L790.03 211.03V209.97H791.97V211.1ZM791.97 164.03H790.03V163H791.97V164.03Z" fill="#3A414A" stroke="#3A414A" stroke-width="0.05"/>
<path d="M769 232H687C685.409 232 683.883 232.632 682.757 233.757C681.632 234.883 681 236.409 681 238V585.63C681 587.221 680.368 588.747 679.243 589.873C678.117 590.998 676.591 591.63 675 591.63H593" stroke="#3A414A" stroke-width="2"/>
<path d="M770 231.95L770.03 232.98H768.97V231.02H770.11L770 231.95ZM593.03 592.6H592V590.65H593.03V592.6Z" fill="#3A414A" stroke="#3A414A" stroke-width="0.05"/>
<path d="M813 232H906C907.591 232 909.117 232.632 910.243 233.757C911.368 234.883 912 236.409 912 238V585.63C912 587.221 911.368 588.747 910.243 589.873C909.117 590.998 907.591 591.63 906 591.63H873" stroke="#3A414A" stroke-width="2"/>
<path d="M813.03 232.98H811.89L811.99 232.04L811.96 231.02H813.02L813.03 232.98ZM873.03 592.6H872V590.65H873.03V592.6Z" fill="#3A414A" stroke="#3A414A" stroke-width="0.05"/>
<path d="M791 254V300" stroke="#3A414A" stroke-width="2"/>
<path d="M790.95 253L791.97 252.97V254.03H790.03V252.89L790.95 253ZM791.97 301H790.03V299.97H791.97V301Z" fill="#3A414A" stroke="#3A414A" stroke-width="0.05"/>
<path d="M769 232H687C685.409 232 683.883 231.368 682.757 230.243C681.632 229.117 681 227.591 681 226V7C681 5.4087 680.368 3.88257 679.243 2.75735C678.117 1.63214 676.591 1 675 1H237C235.409 1 233.883 1.63214 232.757 2.75735C231.632 3.88257 231 5.4087 231 7V40" stroke="#3A414A" stroke-width="2"/>
<path d="M770 231.95L770.03 232.98H768.97V231.02H770.11L770 231.95ZM231.98 41H230V39.97H232L231.98 41Z" fill="#3A414A" stroke="#3A414A" stroke-width="0.05"/>
<path d="M768.5 232C735.726 232 697.076 232 697.076 232C695.447 232 693.885 232.632 692.734 233.757C691.582 234.883 690.935 236.409 690.935 238V717C690.935 718.591 690.288 720.117 689.137 721.243C687.985 722.368 686.423 723 684.794 723H278.141C276.512 723 274.95 722.368 273.799 721.243C272.647 720.117 272 718.591 272 717V684" stroke="#3A414A" stroke-width="2"/>
<path d="M770 231.95L770.03 232.98H768.97V231.02H770.11L770 231.95ZM272.64 684.03H270.69V683H272.63L272.64 684.03Z" fill="#3A414A" stroke="#3A414A" stroke-width="0.05"/>
<path d="M769 232H687C685.409 232 683.883 232.632 682.757 233.757C681.632 234.883 681 236.409 681 238V457C681 458.591 680.368 460.117 679.243 461.243C678.117 462.368 676.591 463 675 463H277.67C276.079 463 274.553 462.368 273.427 461.243C272.302 460.117 271.67 458.591 271.67 457V424" stroke="#3A414A" stroke-width="2"/>
<path d="M770 231.95L770.03 232.98H768.97V231.02H770.11L770 231.95ZM272.64 424.03H270.69V423H272.63L272.64 424.03Z" fill="#3A414A" stroke="#3A414A" stroke-width="0.05"/>
<path d="M531 522H520M486 522H481" stroke="#3A414A" stroke-width="2"/>
<path d="M506 536C498.27 536 492 529.73 492 522C492 514.27 498.27 508 506 508C513.73 508 520 514.27 520 522C520 529.73 513.73 536 506 536Z" fill="white" stroke="#3A414A" stroke-width="2"/>
<path d="M506 502C494.95 502 486 510.95 486 522C486 533.05 494.95 542 506 542" stroke="#3A414A" stroke-width="2"/>
<path d="M532 522H676C676 519.24 678.24 517 681 517C683.76 517 686 519.24 686 522H785C786.591 522 788.117 522.632 789.243 523.757C790.368 524.883 791 526.409 791 528V560" stroke="#3A414A" stroke-width="2"/>
<path d="M532.03 522.98H531V521.03H532.03V522.98ZM791.97 561H790.03V559.97H791.97V561Z" fill="#3A414A" stroke="#3A414A" stroke-width="0.05"/>
<path d="M480 522H237C235.409 522 233.883 522.632 232.757 523.757C231.632 524.883 231 526.409 231 528V560" stroke="#3A414A" stroke-width="2"/>
<path d="M481 522.98H479.97V521.03H481V522.98ZM231.98 561H230V559.97H232L231.98 561Z" fill="#3A414A" stroke="#3A414A" stroke-width="0.05"/>
<path d="M429 71.63H377C375.409 71.63 373.883 72.2621 372.757 73.3874C371.632 74.5126 371 76.0387 371 77.63V177C368.24 177 366 179.24 366 182C366 184.76 368.24 187 371 187V277C368.24 277 366 279.24 366 282C366 284.76 368.24 287 371 287V458C368.24 458 366 460.24 366 463C366 465.76 368.24 468 371 468V517C368.24 517 366 519.24 366 522C366 524.76 368.24 527 371 527V561" stroke="#3A414A" stroke-width="2"/>
<path d="M430 72.6H428.97V70.65H430V72.6ZM371.98 562H370V560.97H372L371.98 562Z" fill="#3A414A" stroke="#3A414A" stroke-width="0.05"/>
<path d="M371 613V646.38C371 647.971 371.632 649.497 372.757 650.623C373.883 651.748 375.409 652.38 377 652.38H429" stroke="#3A414A" stroke-width="2"/>
<path d="M371.98 613.03H370V612H372L371.98 613.03ZM430 653.35H428.97V651.4H430V653.35Z" fill="#3A414A" stroke="#3A414A" stroke-width="0.05"/>
<path d="M371 612V601M371 567V562" stroke="#3A414A" stroke-width="2"/>
<path d="M357 587C357 579.27 363.27 573 371 573C378.73 573 385 579.27 385 587C385 594.73 378.73 601 371 601C363.27 601 357 594.73 357 587Z" fill="white" stroke="#3A414A" stroke-width="2"/>
<path d="M391 587C391 575.95 382.05 567 371 567C359.95 567 351 575.95 351 587" stroke="#3A414A" stroke-width="2"/>
<path d="M101 652.37H90M56 652.37H51" stroke="#3A414A" stroke-width="2"/>
<path d="M76 666.37C68.27 666.37 62 660.1 62 652.37C62 644.64 68.27 638.37 76 638.37C83.73 638.37 90 644.64 90 652.37C90 660.1 83.73 666.37 76 666.37Z" fill="white" stroke="#3A414A" stroke-width="2"/>
<path d="M76 632.37C64.95 632.37 56 641.33 56 652.37C56 663.42 64.95 672.37 76 672.37" stroke="#3A414A" stroke-width="2"/>
<path d="M102 652.38H149" stroke="#3A414A" stroke-width="2"/>
<path d="M102.03 653.35H101V651.4H102.03V653.35ZM150 653.35H148.97V651.4H150V653.35Z" fill="#3A414A" stroke="#3A414A" stroke-width="0.05"/>
<path d="M50 652.38H17C15.4087 652.38 13.8826 651.748 12.7574 650.623C11.6321 649.497 11 647.971 11 646.38V217C11 215.409 11.6321 213.883 12.7574 212.757C13.8826 211.632 15.4087 211 17 211H66C66 208.24 68.24 206 71 206C73.76 206 76 208.24 76 211H366C366 208.24 368.24 206 371 206C373.76 206 376 208.24 376 211H464.33C465.921 211 467.447 210.368 468.573 209.243C469.698 208.117 470.33 206.591 470.33 205V164" stroke="#3A414A" stroke-width="2"/>
<path d="M51 653.35H49.97V651.4H51V653.35ZM471.3 164.03H469.36V163H471.31L471.3 164.03Z" fill="#3A414A" stroke="#3A414A" stroke-width="0.05"/>
<path d="M50 652.38H17C15.4087 652.38 13.8826 651.748 12.7574 650.623C11.6321 649.497 11 647.971 11 646.38V217C11 215.409 11.6321 213.883 12.7574 212.757C13.8826 211.632 15.4087 211 17 211H66C66 208.24 68.24 206 71 206C73.76 206 76 208.24 76 211H366C366 208.24 368.24 206 371 206C373.76 206 376 208.24 376 211H506C506 208.24 508.24 206 511 206C513.76 206 516 208.24 516 211H676C676 208.24 678.24 206 681 206C683.76 206 686 208.24 686 211H744.33C745.921 211 747.447 210.368 748.573 209.243C749.698 208.117 750.33 206.591 750.33 205V164" stroke="#3A414A" stroke-width="2"/>
<path d="M51 653.35H49.97V651.4H51V653.35ZM751.3 164.03H749.36V163H751.31L751.3 164.03Z" fill="#3A414A" stroke="#3A414A" stroke-width="0.05"/>
<path d="M511 272V261M511 227V222" stroke="#3A414A" stroke-width="2"/>
<path d="M497 247C497 239.27 503.27 233 511 233C518.73 233 525 239.27 525 247C525 254.73 518.73 261 511 261C503.27 261 497 254.73 497 247Z" fill="white" stroke="#3A414A" stroke-width="2"/>
<path d="M531 247C531 235.95 522.05 227 511 227C499.95 227 491 235.95 491 247" stroke="#3A414A" stroke-width="2"/>
<path d="M131 362H120M86 362H81" stroke="#3A414A" stroke-width="2"/>
<path d="M106 376C98.27 376 92 369.73 92 362C92 354.27 98.27 348 106 348C113.73 348 120 354.27 120 362C120 369.73 113.73 376 106 376Z" fill="white" stroke="#3A414A" stroke-width="2"/>
<path d="M106 342C94.95 342 86 350.95 86 362C86 373.05 94.95 382 106 382" stroke="#3A414A" stroke-width="2"/>
<path d="M709.5 622H707.56M703.66 622H699.78M695.88 622H692M688.1 622H684.22M680.32 622H676.44M672.54 622H668.66M664.78 622H660.88M657 622H653.1M649.22 622H645.32M641.44 622H637.54M633.66 622H629.76M625.88 622H622M618.1 622H614.22M610.32 622H608.38" stroke="#3A414A"/>
<path d="M710 622.48H709.5V621.52H710V622.48Z" fill="#3A414A" stroke="#3A414A" stroke-width="0.05"/>
<path d="M593.62 622L607.88 617.37V626.63L593.62 622Z" fill="#3A414A" stroke="#3A414A"/>
<path d="M551.67 300.5V298.48M551.67 294.44V290.41M551.67 286.38V282.34M551.67 278.31V274.27M551.67 270.23V266.19M551.67 262.16V258.12M551.67 254.09V250.06M551.67 246.02V241.98M551.67 237.94V233.91M551.67 229.86V225.82M551.67 221.79V217.76M551.67 213.72V209.68M551.67 205.65V201.61M551.67 197.56V193.52M551.67 189.5V185.46M551.67 181.42V179.4" stroke="#3A414A"/>
<path d="M552.14 301H551.19V300.5H552.13L552.14 301Z" fill="#3A414A" stroke="#3A414A" stroke-width="0.05"/>
<path d="M551.67 164.62L556.3 178.88H547.03L551.67 164.62Z" fill="#3A414A" stroke="#3A414A"/>
<path d="M231 300.5V298.48M231 294.44V290.41M231 286.38V282.34M231 278.31V274.27M231 270.23V266.19M231 262.16V258.12M231 254.09V250.06M231 246.02V241.98M231 237.94V233.91M231 229.86V225.82M231 221.79V217.76M231 213.72V209.68M231 205.65V201.61M231 197.56V193.52M231 189.5V185.46M231 181.42V179.4" stroke="#3A414A"/>
<path d="M231.48 301H230.52V300.5H231.48V301Z" fill="#3A414A" stroke="#3A414A" stroke-width="0.05"/>
<path d="M231 164.62L235.63 178.88H226.37L231 164.62Z" fill="#3A414A" stroke="#3A414A"/>
<path d="M411 357.1C411 355.509 411.632 353.983 412.757 352.857C413.883 351.732 415.409 351.1 417 351.1H445C446.591 351.1 448.117 351.732 449.243 352.857C450.368 353.983 451 355.509 451 357.1V366.9C451 368.491 450.368 370.017 449.243 371.143C448.117 372.268 446.591 372.9 445 372.9H417C415.409 372.9 413.883 372.268 412.757 371.143C411.632 370.017 411 368.491 411 366.9V357.1ZM131 357.1C131 355.509 131.632 353.983 132.757 352.857C133.883 351.732 135.409 351.1 137 351.1H165C166.591 351.1 168.117 351.732 169.243 352.857C170.368 353.983 171 355.509 171 357.1V366.9C171 368.491 170.368 370.017 169.243 371.143C168.117 372.268 166.591 372.9 165 372.9H137C135.409 372.9 133.883 372.268 132.757 371.143C131.632 370.017 131 368.491 131 366.9V357.1ZM131 97.1C131 95.5087 131.632 93.9826 132.757 92.8574C133.883 91.7321 135.409 91.1 137 91.1H165C166.591 91.1 168.117 91.7321 169.243 92.8574C170.368 93.9826 171 95.5087 171 97.1V106.9C171 108.491 170.368 110.017 169.243 111.143C168.117 112.268 166.591 112.9 165 112.9H137C135.409 112.9 133.883 112.268 132.757 111.143C131.632 110.017 131 108.491 131 106.9V97.1ZM411 68C411 66.4087 411.632 64.8826 412.757 63.7574C413.883 62.6321 415.409 62 417 62H445C446.591 62 448.117 62.6321 449.243 63.7574C450.368 64.8826 451 66.4087 451 68V77.8C451 79.3913 450.368 80.9174 449.243 82.0426C448.117 83.1679 446.591 83.8 445 83.8H417C415.409 83.8 413.883 83.1679 412.757 82.0426C411.632 80.9174 411 79.3913 411 77.8V68ZM411 97.1C411 95.5087 411.632 93.9826 412.757 92.8574C413.883 91.7321 415.409 91.1 417 91.1H445C446.591 91.1 448.117 91.7321 449.243 92.8574C450.368 93.9826 451 95.5087 451 97.1V106.9C451 108.491 450.368 110.017 449.243 111.143C448.117 112.268 446.591 112.9 445 112.9H417C415.409 112.9 413.883 112.268 412.757 111.143C411.632 110.017 411 108.491 411 106.9V97.1ZM740.78 148C740.78 146.409 741.412 144.883 742.537 143.757C743.663 142.632 745.189 142 746.78 142H754.78C756.371 142 757.897 142.632 759.023 143.757C760.148 144.883 760.78 146.409 760.78 148V176C760.78 177.591 760.148 179.117 759.023 180.243C757.897 181.368 756.371 182 754.78 182H746.78C745.189 182 743.663 181.368 742.537 180.243C741.412 179.117 740.78 177.591 740.78 176V148ZM781 148C781 146.409 781.632 144.883 782.757 143.757C783.883 142.632 785.409 142 787 142H795C796.591 142 798.117 142.632 799.243 143.757C800.368 144.883 801 146.409 801 148V176C801 177.591 800.368 179.117 799.243 180.243C798.117 181.368 796.591 182 795 182H787C785.409 182 783.883 181.368 782.757 180.243C781.632 179.117 781 177.591 781 176V148ZM781 288C781 286.409 781.632 284.883 782.757 283.757C783.883 282.632 785.409 282 787 282H795C796.591 282 798.117 282.632 799.243 283.757C800.368 284.883 801 286.409 801 288V316C801 317.591 800.368 319.117 799.243 320.243C798.117 321.368 796.591 322 795 322H787C785.409 322 783.883 321.368 782.757 320.243C781.632 319.117 781 317.591 781 316V288Z" fill="white" stroke="#3A414A" stroke-width="2"/>
<path d="M577 142C575.409 142 573.883 141.368 572.757 140.243C571.632 139.117 571 137.591 571 136V128C571 126.409 571.632 124.883 572.757 123.757C573.883 122.632 575.409 122 577 122H605C606.591 122 608.117 122.632 609.243 123.757C610.368 124.883 611 126.409 611 128V136C611 137.591 610.368 139.117 609.243 140.243C608.117 141.368 606.591 142 605 142H577Z" fill="white" stroke="#3A414A" stroke-width="2"/>
<path d="M571 357.1C571 355.509 571.632 353.983 572.757 352.857C573.883 351.732 575.409 351.1 577 351.1H605C606.591 351.1 608.117 351.732 609.243 352.857C610.368 353.983 611 355.509 611 357.1V366.9C611 368.491 610.368 370.017 609.243 371.143C608.117 372.268 606.591 372.9 605 372.9H577C575.409 372.9 573.883 372.268 572.757 371.143C571.632 370.017 571 368.491 571 366.9V357.1ZM571 588C571 586.409 571.632 584.883 572.757 583.757C573.883 582.632 575.409 582 577 582H605C606.591 582 608.117 582.632 609.243 583.757C610.368 584.883 611 586.409 611 588V597.8C611 599.391 610.368 600.917 609.243 602.043C608.117 603.168 606.591 603.8 605 603.8H577C575.409 603.8 573.883 603.168 572.757 602.043C571.632 600.917 571 599.391 571 597.8V588ZM411 647.47C411 645.879 411.632 644.353 412.757 643.227C413.883 642.102 415.409 641.47 417 641.47H445C446.591 641.47 448.117 642.102 449.243 643.227C450.368 644.353 451 645.879 451 647.47V657.27C451 658.861 450.368 660.387 449.243 661.513C448.117 662.638 446.591 663.27 445 663.27H417C415.409 663.27 413.883 662.638 412.757 661.513C411.632 660.387 411 658.861 411 657.27V647.47ZM131 617.1C131 615.509 131.632 613.983 132.757 612.857C133.883 611.732 135.409 611.1 137 611.1H165C166.591 611.1 168.117 611.732 169.243 612.857C170.368 613.983 171 615.509 171 617.1V626.9C171 628.491 170.368 630.017 169.243 631.143C168.117 632.268 166.591 632.9 165 632.9H137C135.409 632.9 133.883 632.268 132.757 631.143C131.632 630.017 131 628.491 131 626.9V617.1ZM131 647.47C131 645.879 131.632 644.353 132.757 643.227C133.883 642.102 135.409 641.47 137 641.47H165C166.591 641.47 168.117 642.102 169.243 643.227C170.368 644.353 171 645.879 171 647.47V657.27C171 658.861 170.368 660.387 169.243 661.513C168.117 662.638 166.591 663.27 165 663.27H137C135.409 663.27 133.883 662.638 132.757 661.513C131.632 660.387 131 658.861 131 657.27V647.47ZM501 288C501 286.409 501.632 284.883 502.757 283.757C503.883 282.632 505.409 282 507 282H515C516.591 282 518.117 282.632 519.243 283.757C520.368 284.883 521 286.409 521 288V316C521 317.591 520.368 319.117 519.243 320.243C518.117 321.368 516.591 322 515 322H507C505.409 322 503.883 321.368 502.757 320.243C501.632 319.117 501 317.591 501 316V288ZM501 148C501 146.409 501.632 144.883 502.757 143.757C503.883 142.632 505.409 142 507 142H515C516.591 142 518.117 142.632 519.243 143.757C520.368 144.883 521 146.409 521 148V176C521 177.591 520.368 179.117 519.243 180.243C518.117 181.368 516.591 182 515 182H507C505.409 182 503.883 181.368 502.757 180.243C501.632 179.117 501 177.591 501 176V148ZM461 148C461 146.409 461.632 144.883 462.757 143.757C463.883 142.632 465.409 142 467 142H475C476.591 142 478.117 142.632 479.243 143.757C480.368 144.883 481 146.409 481 148V176C481 177.591 480.368 179.117 479.243 180.243C478.117 181.368 476.591 182 475 182H467C465.409 182 463.883 181.368 462.757 180.243C461.632 179.117 461 177.591 461 176V148ZM781 548C781 546.409 781.632 544.883 782.757 543.757C783.883 542.632 785.409 542 787 542H795C796.591 542 798.117 542.632 799.243 543.757C800.368 544.883 801 546.409 801 548V576C801 577.591 800.368 579.117 799.243 580.243C798.117 581.368 796.591 582 795 582H787C785.409 582 783.883 581.368 782.757 580.243C781.632 579.117 781 577.591 781 576V548ZM221 28C221 26.4087 221.632 24.8826 222.757 23.7574C223.883 22.6321 225.409 22 227 22H235C236.591 22 238.117 22.6321 239.243 23.7574C240.368 24.8826 241 26.4087 241 28V56C241 57.5913 240.368 59.1174 239.243 60.2426C238.117 61.3679 236.591 62 235 62H227C225.409 62 223.883 61.3679 222.757 60.2426C221.632 59.1174 221 57.5913 221 56V28Z" fill="white"/>
<path d="M222.757 542.757C221.632 543.883 221 545.409 221 547V575C221 576.591 221.632 578.117 222.757 579.243C223.883 580.368 225.409 581 227 581H235C236.591 581 238.117 580.368 239.243 579.243C240.368 578.117 241 576.591 241 575V547C241 545.409 240.368 543.883 239.243 542.757C238.117 541.632 236.591 541 235 541H227C225.409 541 223.883 541.632 222.757 542.757Z" fill="white"/>
<path d="M263.757 403.257C262.632 404.383 262 405.909 262 407.5V435.5C262 437.091 262.632 438.617 263.757 439.743C264.883 440.868 266.409 441.5 268 441.5H276C277.591 441.5 279.117 440.868 280.243 439.743C281.368 438.617 282 437.091 282 435.5V407.5C282 405.909 281.368 404.383 280.243 403.257C279.117 402.132 277.591 401.5 276 401.5H268C266.409 401.5 264.883 402.132 263.757 403.257Z" fill="white"/>
<path d="M263.757 663.27C262.632 664.395 262 665.921 262 667.513V695.513C262 697.104 262.632 698.63 263.757 699.755C264.883 700.88 266.409 701.513 268 701.513H276C277.591 701.513 279.117 700.88 280.243 699.755C281.368 698.63 282 697.104 282 695.513V667.513C282 665.921 281.368 664.395 280.243 663.27C279.117 662.145 277.591 661.513 276 661.513H268C266.409 661.513 264.883 662.145 263.757 663.27Z" fill="white"/>
<path d="M571 357.1C571 355.509 571.632 353.983 572.757 352.857C573.883 351.732 575.409 351.1 577 351.1H605C606.591 351.1 608.117 351.732 609.243 352.857C610.368 353.983 611 355.509 611 357.1V366.9C611 368.491 610.368 370.017 609.243 371.143C608.117 372.268 606.591 372.9 605 372.9H577C575.409 372.9 573.883 372.268 572.757 371.143C571.632 370.017 571 368.491 571 366.9V357.1ZM571 588C571 586.409 571.632 584.883 572.757 583.757C573.883 582.632 575.409 582 577 582H605C606.591 582 608.117 582.632 609.243 583.757C610.368 584.883 611 586.409 611 588V597.8C611 599.391 610.368 600.917 609.243 602.043C608.117 603.168 606.591 603.8 605 603.8H577C575.409 603.8 573.883 603.168 572.757 602.043C571.632 600.917 571 599.391 571 597.8V588ZM411 647.47C411 645.879 411.632 644.353 412.757 643.227C413.883 642.102 415.409 641.47 417 641.47H445C446.591 641.47 448.117 642.102 449.243 643.227C450.368 644.353 451 645.879 451 647.47V657.27C451 658.861 450.368 660.387 449.243 661.513C448.117 662.638 446.591 663.27 445 663.27H417C415.409 663.27 413.883 662.638 412.757 661.513C411.632 660.387 411 658.861 411 657.27V647.47ZM131 617.1C131 615.509 131.632 613.983 132.757 612.857C133.883 611.732 135.409 611.1 137 611.1H165C166.591 611.1 168.117 611.732 169.243 612.857C170.368 613.983 171 615.509 171 617.1V626.9C171 628.491 170.368 630.017 169.243 631.143C168.117 632.268 166.591 632.9 165 632.9H137C135.409 632.9 133.883 632.268 132.757 631.143C131.632 630.017 131 628.491 131 626.9V617.1ZM131 647.47C131 645.879 131.632 644.353 132.757 643.227C133.883 642.102 135.409 641.47 137 641.47H165C166.591 641.47 168.117 642.102 169.243 643.227C170.368 644.353 171 645.879 171 647.47V657.27C171 658.861 170.368 660.387 169.243 661.513C168.117 662.638 166.591 663.27 165 663.27H137C135.409 663.27 133.883 662.638 132.757 661.513C131.632 660.387 131 658.861 131 657.27V647.47ZM501 288C501 286.409 501.632 284.883 502.757 283.757C503.883 282.632 505.409 282 507 282H515C516.591 282 518.117 282.632 519.243 283.757C520.368 284.883 521 286.409 521 288V316C521 317.591 520.368 319.117 519.243 320.243C518.117 321.368 516.591 322 515 322H507C505.409 322 503.883 321.368 502.757 320.243C501.632 319.117 501 317.591 501 316V288ZM501 148C501 146.409 501.632 144.883 502.757 143.757C503.883 142.632 505.409 142 507 142H515C516.591 142 518.117 142.632 519.243 143.757C520.368 144.883 521 146.409 521 148V176C521 177.591 520.368 179.117 519.243 180.243C518.117 181.368 516.591 182 515 182H507C505.409 182 503.883 181.368 502.757 180.243C501.632 179.117 501 177.591 501 176V148ZM461 148C461 146.409 461.632 144.883 462.757 143.757C463.883 142.632 465.409 142 467 142H475C476.591 142 478.117 142.632 479.243 143.757C480.368 144.883 481 146.409 481 148V176C481 177.591 480.368 179.117 479.243 180.243C478.117 181.368 476.591 182 475 182H467C465.409 182 463.883 181.368 462.757 180.243C461.632 179.117 461 177.591 461 176V148ZM781 548C781 546.409 781.632 544.883 782.757 543.757C783.883 542.632 785.409 542 787 542H795C796.591 542 798.117 542.632 799.243 543.757C800.368 544.883 801 546.409 801 548V576C801 577.591 800.368 579.117 799.243 580.243C798.117 581.368 796.591 582 795 582H787C785.409 582 783.883 581.368 782.757 580.243C781.632 579.117 781 577.591 781 576V548ZM221 28C221 26.4087 221.632 24.8826 222.757 23.7574C223.883 22.6321 225.409 22 227 22H235C236.591 22 238.117 22.6321 239.243 23.7574C240.368 24.8826 241 26.4087 241 28V56C241 57.5913 240.368 59.1174 239.243 60.2426C238.117 61.3679 236.591 62 235 62H227C225.409 62 223.883 61.3679 222.757 60.2426C221.632 59.1174 221 57.5913 221 56V28Z" stroke="#3A414A" stroke-width="2"/>
<path d="M222.757 542.757C221.632 543.883 221 545.409 221 547V575C221 576.591 221.632 578.117 222.757 579.243C223.883 580.368 225.409 581 227 581H235C236.591 581 238.117 580.368 239.243 579.243C240.368 578.117 241 576.591 241 575V547C241 545.409 240.368 543.883 239.243 542.757C238.117 541.632 236.591 541 235 541H227C225.409 541 223.883 541.632 222.757 542.757Z" stroke="#3A414A" stroke-width="2"/>
<path d="M263.757 403.257C262.632 404.383 262 405.909 262 407.5V435.5C262 437.091 262.632 438.617 263.757 439.743C264.883 440.868 266.409 441.5 268 441.5H276C277.591 441.5 279.117 440.868 280.243 439.743C281.368 438.617 282 437.091 282 435.5V407.5C282 405.909 281.368 404.383 280.243 403.257C279.117 402.132 277.591 401.5 276 401.5H268C266.409 401.5 264.883 402.132 263.757 403.257Z" stroke="#3A414A" stroke-width="2"/>
<path d="M263.757 663.27C262.632 664.395 262 665.921 262 667.513V695.513C262 697.104 262.632 698.63 263.757 699.755C264.883 700.88 266.409 701.513 268 701.513H276C277.591 701.513 279.117 700.88 280.243 699.755C281.368 698.63 282 697.104 282 695.513V667.513C282 665.921 281.368 664.395 280.243 663.27C279.117 662.145 277.591 661.513 276 661.513H268C266.409 661.513 264.883 662.145 263.757 663.27Z" stroke="#3A414A" stroke-width="2"/>
</g>
<defs>
<clipPath id="clip0_1_90">
<rect width="913" height="724" fill="white"/>
</clipPath>
</defs>
</svg>
