<svg xmlns="http://www.w3.org/2000/svg" xmlns:xlink="http://www.w3.org/1999/xlink" contentStyleType="text/css" height="943px" preserveAspectRatio="none" style="width:1000px;height:943px;background:#FFFFFF;" version="1.1" viewBox="0 0 1000 943" width="1000px" zoomAndPan="magnify"><defs/><g><rect fill="none" height="75.3984" style="stroke:#000000;stroke-width:1.5;" width="712.3408" x="10" y="273.0938"/><rect fill="none" height="46.2656" style="stroke:#000000;stroke-width:1.5;" width="374.1938" x="10" y="362.4922"/><line style="stroke:#181818;stroke-width:0.5;stroke-dasharray:5.0,5.0;" x1="53" x2="53" y1="81.2969" y2="862.75"/><line style="stroke:#181818;stroke-width:0.5;stroke-dasharray:5.0,5.0;" x1="344.9878" x2="344.9878" y1="81.2969" y2="862.75"/><line style="stroke:#181818;stroke-width:0.5;stroke-dasharray:5.0,5.0;" x1="521.9736" x2="521.9736" y1="81.2969" y2="862.75"/><line style="stroke:#181818;stroke-width:0.5;stroke-dasharray:5.0,5.0;" x1="639.7744" x2="639.7744" y1="81.2969" y2="862.75"/><line style="stroke:#181818;stroke-width:0.5;stroke-dasharray:5.0,5.0;" x1="751.3408" x2="751.3408" y1="81.2969" y2="862.75"/><line style="stroke:#181818;stroke-width:0.5;stroke-dasharray:5.0,5.0;" x1="815.0508" x2="815.0508" y1="81.2969" y2="862.75"/><line style="stroke:#181818;stroke-width:0.5;stroke-dasharray:5.0,5.0;" x1="881.082" x2="881.082" y1="81.2969" y2="862.75"/><line style="stroke:#181818;stroke-width:0.5;stroke-dasharray:5.0,5.0;" x1="962.002" x2="962.002" y1="81.2969" y2="862.75"/><text fill="#000000" font-family="sans-serif" font-size="14" lengthAdjust="spacing" textLength="61.3662" x="20" y="77.9951">Manager</text><ellipse cx="53.6831" cy="13.5" fill="#E2E2F0" rx="8" ry="8" style="stroke:#181818;stroke-width:0.5;"/><path d="M53.6831,21.5 L53.6831,48.5 M40.6831,29.5 L66.6831,29.5 M53.6831,48.5 L40.6831,63.5 M53.6831,48.5 L66.6831,63.5 " fill="none" style="stroke:#181818;stroke-width:0.5;"/><text fill="#000000" font-family="sans-serif" font-size="14" lengthAdjust="spacing" textLength="61.3662" x="20" y="874.7451">Manager</text><ellipse cx="53.6831" cy="886.5469" fill="#E2E2F0" rx="8" ry="8" style="stroke:#181818;stroke-width:0.5;"/><path d="M53.6831,894.5469 L53.6831,921.5469 M40.6831,902.5469 L66.6831,902.5469 M53.6831,921.5469 L40.6831,936.5469 M53.6831,921.5469 L66.6831,936.5469 " fill="none" style="stroke:#181818;stroke-width:0.5;"/><text fill="#000000" font-family="sans-serif" font-size="14" lengthAdjust="spacing" textLength="52.2061" x="315.9878" y="77.9951">System</text><ellipse cx="345.0908" cy="49" fill="#E2E2F0" rx="12" ry="12" style="stroke:#181818;stroke-width:0.5;"/><line style="stroke:#181818;stroke-width:0.5;" x1="333.0908" x2="357.0908" y1="63" y2="63"/><text fill="#000000" font-family="sans-serif" font-size="14" lengthAdjust="spacing" textLength="52.2061" x="315.9878" y="874.7451">System</text><ellipse cx="345.0908" cy="894.0469" fill="#E2E2F0" rx="12" ry="12" style="stroke:#181818;stroke-width:0.5;"/><line style="stroke:#181818;stroke-width:0.5;" x1="333.0908" x2="357.0908" y1="908.0469" y2="908.0469"/><text fill="#000000" font-family="sans-serif" font-size="14" lengthAdjust="spacing" textLength="66.8008" x="485.9736" y="77.9951">Database</text><ellipse cx="522.374" cy="49" fill="#E2E2F0" rx="12" ry="12" style="stroke:#181818;stroke-width:0.5;"/><line style="stroke:#181818;stroke-width:0.5;" x1="510.374" x2="534.374" y1="63" y2="63"/><text fill="#000000" font-family="sans-serif" font-size="14" lengthAdjust="spacing" textLength="66.8008" x="485.9736" y="874.7451">Database</text><ellipse cx="522.374" cy="894.0469" fill="#E2E2F0" rx="12" ry="12" style="stroke:#181818;stroke-width:0.5;"/><line style="stroke:#181818;stroke-width:0.5;" x1="510.374" x2="534.374" y1="908.0469" y2="908.0469"/><text fill="#000000" font-family="sans-serif" font-size="14" lengthAdjust="spacing" textLength="137.5664" x="568.7744" y="77.9951">ManagerDashboard</text><ellipse cx="640.5576" cy="49" fill="#E2E2F0" rx="12" ry="12" style="stroke:#181818;stroke-width:0.5;"/><line style="stroke:#181818;stroke-width:0.5;" x1="628.5576" x2="652.5576" y1="63" y2="63"/><text fill="#000000" font-family="sans-serif" font-size="14" lengthAdjust="spacing" textLength="137.5664" x="568.7744" y="874.7451">ManagerDashboard</text><ellipse cx="640.5576" cy="894.0469" fill="#E2E2F0" rx="12" ry="12" style="stroke:#181818;stroke-width:0.5;"/><line style="stroke:#181818;stroke-width:0.5;" x1="628.5576" x2="652.5576" y1="908.0469" y2="908.0469"/><text fill="#000000" font-family="sans-serif" font-size="14" lengthAdjust="spacing" textLength="53.71" x="722.3408" y="77.9951">Product</text><ellipse cx="752.1958" cy="49" fill="#E2E2F0" rx="12" ry="12" style="stroke:#181818;stroke-width:0.5;"/><line style="stroke:#181818;stroke-width:0.5;" x1="740.1958" x2="764.1958" y1="63" y2="63"/><text fill="#000000" font-family="sans-serif" font-size="14" lengthAdjust="spacing" textLength="53.71" x="722.3408" y="874.7451">Product</text><ellipse cx="752.1958" cy="894.0469" fill="#E2E2F0" rx="12" ry="12" style="stroke:#181818;stroke-width:0.5;"/><line style="stroke:#181818;stroke-width:0.5;" x1="740.1958" x2="764.1958" y1="908.0469" y2="908.0469"/><text fill="#000000" font-family="sans-serif" font-size="14" lengthAdjust="spacing" textLength="40.0313" x="792.0508" y="77.9951">Order</text><ellipse cx="815.0664" cy="49" fill="#E2E2F0" rx="12" ry="12" style="stroke:#181818;stroke-width:0.5;"/><line style="stroke:#181818;stroke-width:0.5;" x1="803.0664" x2="827.0664" y1="63" y2="63"/><text fill="#000000" font-family="sans-serif" font-size="14" lengthAdjust="spacing" textLength="40.0313" x="792.0508" y="874.7451">Order</text><ellipse cx="815.0664" cy="894.0469" fill="#E2E2F0" rx="12" ry="12" style="stroke:#181818;stroke-width:0.5;"/><line style="stroke:#181818;stroke-width:0.5;" x1="803.0664" x2="827.0664" y1="908.0469" y2="908.0469"/><text fill="#000000" font-family="sans-serif" font-size="14" lengthAdjust="spacing" textLength="61.9199" x="848.082" y="77.9951">Payment</text><ellipse cx="882.042" cy="49" fill="#E2E2F0" rx="12" ry="12" style="stroke:#181818;stroke-width:0.5;"/><line style="stroke:#181818;stroke-width:0.5;" x1="870.042" x2="894.042" y1="63" y2="63"/><text fill="#000000" font-family="sans-serif" font-size="14" lengthAdjust="spacing" textLength="61.9199" x="848.082" y="874.7451">Payment</text><ellipse cx="882.042" cy="894.0469" fill="#E2E2F0" rx="12" ry="12" style="stroke:#181818;stroke-width:0.5;"/><line style="stroke:#181818;stroke-width:0.5;" x1="870.042" x2="894.042" y1="908.0469" y2="908.0469"/><text fill="#000000" font-family="sans-serif" font-size="14" lengthAdjust="spacing" textLength="67.4365" x="926.002" y="77.9951">Feedback</text><ellipse cx="962.7202" cy="49" fill="#E2E2F0" rx="12" ry="12" style="stroke:#181818;stroke-width:0.5;"/><line style="stroke:#181818;stroke-width:0.5;" x1="950.7202" x2="974.7202" y1="63" y2="63"/><text fill="#000000" font-family="sans-serif" font-size="14" lengthAdjust="spacing" textLength="67.4365" x="926.002" y="874.7451">Feedback</text><ellipse cx="962.7202" cy="894.0469" fill="#E2E2F0" rx="12" ry="12" style="stroke:#181818;stroke-width:0.5;"/><line style="stroke:#181818;stroke-width:0.5;" x1="950.7202" x2="974.7202" y1="908.0469" y2="908.0469"/><polygon fill="#181818" points="333.0908,108.4297,343.0908,112.4297,333.0908,116.4297,337.0908,112.4297" style="stroke:#181818;stroke-width:1;"/><line style="stroke:#181818;stroke-width:1;" x1="53.6831" x2="339.0908" y1="112.4297" y2="112.4297"/><text fill="#000000" font-family="sans-serif" font-size="13" lengthAdjust="spacing" textLength="120.5737" x="60.6831" y="107.3638">Open Sign-In page</text><polygon fill="#181818" points="333.0908,137.5625,343.0908,141.5625,333.0908,145.5625,337.0908,141.5625" style="stroke:#181818;stroke-width:1;"/><line style="stroke:#181818;stroke-width:1;" x1="53.6831" x2="339.0908" y1="141.5625" y2="141.5625"/><text fill="#000000" font-family="sans-serif" font-size="13" lengthAdjust="spacing" textLength="140.4038" x="60.6831" y="136.4966">Select role (Manager)</text><polygon fill="#181818" points="333.0908,166.6953,343.0908,170.6953,333.0908,174.6953,337.0908,170.6953" style="stroke:#181818;stroke-width:1;"/><line style="stroke:#181818;stroke-width:1;" x1="53.6831" x2="339.0908" y1="170.6953" y2="170.6953"/><text fill="#000000" font-family="sans-serif" font-size="13" lengthAdjust="spacing" textLength="198.9165" x="60.6831" y="165.6294">Enter username and password</text><polygon fill="#181818" points="333.0908,195.8281,343.0908,199.8281,333.0908,203.8281,337.0908,199.8281" style="stroke:#181818;stroke-width:1;"/><line style="stroke:#181818;stroke-width:1;" x1="53.6831" x2="339.0908" y1="199.8281" y2="199.8281"/><text fill="#000000" font-family="sans-serif" font-size="13" lengthAdjust="spacing" textLength="127.2388" x="60.6831" y="194.7622">Click Sign-In button</text><polygon fill="#181818" points="510.374,224.9609,520.374,228.9609,510.374,232.9609,514.374,228.9609" style="stroke:#181818;stroke-width:1;"/><line style="stroke:#181818;stroke-width:1;" x1="345.0908" x2="516.374" y1="228.9609" y2="228.9609"/><text fill="#000000" font-family="sans-serif" font-size="13" lengthAdjust="spacing" textLength="129.5684" x="352.0908" y="223.895">Validate credentials</text><polygon fill="#181818" points="356.0908,254.0938,346.0908,258.0938,356.0908,262.0938,352.0908,258.0938" style="stroke:#181818;stroke-width:1;"/><line style="stroke:#181818;stroke-width:1;" x1="350.0908" x2="521.374" y1="258.0938" y2="258.0938"/><text fill="#000000" font-family="sans-serif" font-size="13" lengthAdjust="spacing" textLength="153.2832" x="362.0908" y="253.0278">Return validation result</text><path d="M10,273.0938 L74.4429,273.0938 L74.4429,280.2266 L64.4429,290.2266 L10,290.2266 L10,273.0938 " fill="#EEEEEE" style="stroke:#000000;stroke-width:1.5;"/><rect fill="none" height="75.3984" style="stroke:#000000;stroke-width:1.5;" width="712.3408" x="10" y="273.0938"/><text fill="#000000" font-family="sans-serif" font-size="13" font-weight="bold" lengthAdjust="spacing" textLength="19.4429" x="25" y="286.1606">alt</text><text fill="#000000" font-family="sans-serif" font-size="11" font-weight="bold" lengthAdjust="spacing" textLength="116.1284" x="89.4429" y="285.3042">[Valid Credentials]</text><polygon fill="#181818" points="628.5576,307.3594,638.5576,311.3594,628.5576,315.3594,632.5576,311.3594" style="stroke:#181818;stroke-width:1;"/><line style="stroke:#181818;stroke-width:1;" x1="345.0908" x2="634.5576" y1="311.3594" y2="311.3594"/><text fill="#000000" font-family="sans-serif" font-size="13" lengthAdjust="spacing" textLength="207.6699" x="352.0908" y="306.2935">Redirect to Manager Dashboard</text><polygon fill="#181818" points="64.6831,336.4922,54.6831,340.4922,64.6831,344.4922,60.6831,340.4922" style="stroke:#181818;stroke-width:1;"/><line style="stroke:#181818;stroke-width:1;" x1="58.6831" x2="639.5576" y1="340.4922" y2="340.4922"/><text fill="#000000" font-family="sans-serif" font-size="13" lengthAdjust="spacing" textLength="183.9233" x="70.6831" y="335.4263">Display Manager Dashboard</text><path d="M10,362.4922 L74.4429,362.4922 L74.4429,369.625 L64.4429,379.625 L10,379.625 L10,362.4922 " fill="#EEEEEE" style="stroke:#000000;stroke-width:1.5;"/><rect fill="none" height="46.2656" style="stroke:#000000;stroke-width:1.5;" width="374.1938" x="10" y="362.4922"/><text fill="#000000" font-family="sans-serif" font-size="13" font-weight="bold" lengthAdjust="spacing" textLength="19.4429" x="25" y="375.5591">alt</text><text fill="#000000" font-family="sans-serif" font-size="11" font-weight="bold" lengthAdjust="spacing" textLength="126.7095" x="89.4429" y="374.7026">[Invalid Credentials]</text><polygon fill="#181818" points="64.6831,396.7578,54.6831,400.7578,64.6831,404.7578,60.6831,400.7578" style="stroke:#181818;stroke-width:1;"/><line style="stroke:#181818;stroke-width:1;" x1="58.6831" x2="344.0908" y1="400.7578" y2="400.7578"/><text fill="#000000" font-family="sans-serif" font-size="13" lengthAdjust="spacing" textLength="267.4077" x="70.6831" y="395.6919">Show error message (Invalid credentials)</text><polygon fill="#181818" points="333.0908,432.8906,343.0908,436.8906,333.0908,440.8906,337.0908,436.8906" style="stroke:#181818;stroke-width:1;"/><line style="stroke:#181818;stroke-width:1;" x1="53.6831" x2="339.0908" y1="436.8906" y2="436.8906"/><text fill="#000000" font-family="sans-serif" font-size="13" lengthAdjust="spacing" textLength="107.9355" x="60.6831" y="431.8247">View new orders</text><polygon fill="#181818" points="803.0664,462.0234,813.0664,466.0234,803.0664,470.0234,807.0664,466.0234" style="stroke:#181818;stroke-width:1;"/><line style="stroke:#181818;stroke-width:1;" x1="345.0908" x2="809.0664" y1="466.0234" y2="466.0234"/><text fill="#000000" font-family="sans-serif" font-size="13" lengthAdjust="spacing" textLength="112.7598" x="352.0908" y="460.9575">Fetch new orders</text><polygon fill="#181818" points="356.0908,491.1563,346.0908,495.1563,356.0908,499.1563,352.0908,495.1563" style="stroke:#181818;stroke-width:1;"/><line style="stroke:#181818;stroke-width:1;" x1="350.0908" x2="814.0664" y1="495.1563" y2="495.1563"/><text fill="#000000" font-family="sans-serif" font-size="13" lengthAdjust="spacing" textLength="89.7495" x="362.0908" y="490.0903">Return orders</text><polygon fill="#181818" points="333.0908,520.2891,343.0908,524.2891,333.0908,528.2891,337.0908,524.2891" style="stroke:#181818;stroke-width:1;"/><line style="stroke:#181818;stroke-width:1;" x1="53.6831" x2="339.0908" y1="524.2891" y2="524.2891"/><text fill="#000000" font-family="sans-serif" font-size="13" lengthAdjust="spacing" textLength="216.7217" x="60.6831" y="519.2231">Accept order and send to kitchen</text><polygon fill="#181818" points="803.0664,549.4219,813.0664,553.4219,803.0664,557.4219,807.0664,553.4219" style="stroke:#181818;stroke-width:1;"/><line style="stroke:#181818;stroke-width:1;" x1="345.0908" x2="809.0664" y1="553.4219" y2="553.4219"/><text fill="#000000" font-family="sans-serif" font-size="13" lengthAdjust="spacing" textLength="205.2451" x="352.0908" y="548.356">Update order status (Accepted)</text><polygon fill="#181818" points="533.374,578.5547,523.374,582.5547,533.374,586.5547,529.374,582.5547" style="stroke:#181818;stroke-width:1;"/><line style="stroke:#181818;stroke-width:1;" x1="527.374" x2="814.0664" y1="582.5547" y2="582.5547"/><text fill="#000000" font-family="sans-serif" font-size="13" lengthAdjust="spacing" textLength="130.1841" x="539.374" y="577.4888">Update order status</text><polygon fill="#181818" points="64.6831,607.6875,54.6831,611.6875,64.6831,615.6875,60.6831,611.6875" style="stroke:#181818;stroke-width:1;"/><line style="stroke:#181818;stroke-width:1;" x1="58.6831" x2="344.0908" y1="611.6875" y2="611.6875"/><text fill="#000000" font-family="sans-serif" font-size="13" lengthAdjust="spacing" textLength="193.2417" x="70.6831" y="606.6216">Show order status (Accepted)</text><polygon fill="#181818" points="333.0908,636.8203,343.0908,640.8203,333.0908,644.8203,337.0908,640.8203" style="stroke:#181818;stroke-width:1;"/><line style="stroke:#181818;stroke-width:1;" x1="53.6831" x2="339.0908" y1="640.8203" y2="640.8203"/><text fill="#000000" font-family="sans-serif" font-size="13" lengthAdjust="spacing" textLength="137.2554" x="60.6831" y="635.7544">View payment status</text><polygon fill="#181818" points="870.042,665.9531,880.042,669.9531,870.042,673.9531,874.042,669.9531" style="stroke:#181818;stroke-width:1;"/><line style="stroke:#181818;stroke-width:1;" x1="345.0908" x2="876.042" y1="669.9531" y2="669.9531"/><text fill="#000000" font-family="sans-serif" font-size="13" lengthAdjust="spacing" textLength="142.0796" x="352.0908" y="664.8872">Fetch payment status</text><polygon fill="#181818" points="356.0908,695.0859,346.0908,699.0859,356.0908,703.0859,352.0908,699.0859" style="stroke:#181818;stroke-width:1;"/><line style="stroke:#181818;stroke-width:1;" x1="350.0908" x2="881.042" y1="699.0859" y2="699.0859"/><text fill="#000000" font-family="sans-serif" font-size="13" lengthAdjust="spacing" textLength="150.0713" x="362.0908" y="694.02">Return payment status</text><polygon fill="#181818" points="64.6831,724.2188,54.6831,728.2188,64.6831,732.2188,60.6831,728.2188" style="stroke:#181818;stroke-width:1;"/><line style="stroke:#181818;stroke-width:1;" x1="58.6831" x2="344.0908" y1="728.2188" y2="728.2188"/><text fill="#000000" font-family="sans-serif" font-size="13" lengthAdjust="spacing" textLength="141.1973" x="70.6831" y="723.1528">Show payment status</text><polygon fill="#181818" points="333.0908,753.3516,343.0908,757.3516,333.0908,761.3516,337.0908,757.3516" style="stroke:#181818;stroke-width:1;"/><line style="stroke:#181818;stroke-width:1;" x1="53.6831" x2="339.0908" y1="757.3516" y2="757.3516"/><text fill="#000000" font-family="sans-serif" font-size="13" lengthAdjust="spacing" textLength="160.3354" x="60.6831" y="752.2856">View customer feedback</text><polygon fill="#181818" points="950.7202,782.4844,960.7202,786.4844,950.7202,790.4844,954.7202,786.4844" style="stroke:#181818;stroke-width:1;"/><line style="stroke:#181818;stroke-width:1;" x1="345.0908" x2="956.7202" y1="786.4844" y2="786.4844"/><text fill="#000000" font-family="sans-serif" font-size="13" lengthAdjust="spacing" textLength="165.1597" x="352.0908" y="781.4185">Fetch customer feedback</text><polygon fill="#181818" points="356.0908,811.6172,346.0908,815.6172,356.0908,819.6172,352.0908,815.6172" style="stroke:#181818;stroke-width:1;"/><line style="stroke:#181818;stroke-width:1;" x1="350.0908" x2="961.7202" y1="815.6172" y2="815.6172"/><text fill="#000000" font-family="sans-serif" font-size="13" lengthAdjust="spacing" textLength="173.1514" x="362.0908" y="810.5513">Return customer feedback</text><polygon fill="#181818" points="64.6831,840.75,54.6831,844.75,64.6831,848.75,60.6831,844.75" style="stroke:#181818;stroke-width:1;"/><line style="stroke:#181818;stroke-width:1;" x1="58.6831" x2="344.0908" y1="844.75" y2="844.75"/><text fill="#000000" font-family="sans-serif" font-size="13" lengthAdjust="spacing" textLength="164.2773" x="70.6831" y="839.6841">Show customer feedback</text><!--SRC=[ZLJ1Rjim3BtxAtXRSkWFv31WI3QWXw75WlNEI5mZn9OCaMwGlvzacx4RoyCC1339nqVoaGuQ2H5-eiTtYXLvSNA3uus56hKEA7X29hL7y07vV0eOhVfVOx2T4JLVefqON_7Mf5SrVn3P4vfBLNrHEZYwT__qx3ED8UPA_KzVntvsyDAIl-FQ52s1ZbIJ4OYX9jYCyMq9-DrBSdHCqMD3WDucJkPhI2CLuFlQcSkz-gaJ2RuQWXccAktW3MjdKGXC99i7nfeh3SyPVv5qqSF7W7V1GoJkQgcmbe45zZCAICzKxt4BcSwwc4UNS1TrMbBEVioPyUpWuBYjyLP89M_xbfxzn_yrbPPm3bUW6DDjDMcPoGaRJP_9iksvPqSmBfzuF9_27juSNS6dNyW8dgsWJzcbun9pdYDwVq7uCLoeySqOQcK0z8V1gS-iwyKbRlBBeh_RVkL31WjAnx0PQCXkfnQcCobaL6jAhj7EbDkVoLnOFpGu3eHh-hKZR55tp5SL7t3AljHobV3p80-mMV-vBOPznnAQPDx_8TOcC8hyeyYffYRh54ki8WgJ_8luyp0Bv5y0]--></g></svg>