<?xml version="1.0" encoding="utf-8"?>
<!-- Generator: Adobe Illustrator 28.2.0, SVG Export Plug-In . SVG Version: 6.00 Build 0)  -->
<svg version="1.1" id="Layer_1" xmlns="http://www.w3.org/2000/svg" xmlns:xlink="http://www.w3.org/1999/xlink" x="0px" y="0px"
	 viewBox="0 0 612 611.9" style="enable-background:new 0 0 612 611.9;" xml:space="preserve">
<style type="text/css">
	.st0{fill:url(#SVGID_1_);}
	.st1{fill:url(#SVGID_00000005236093993868226140000013621504479300187832_);}
	.st2{fill:url(#SVGID_00000031182665067871424430000003544431434916978591_);}
</style>
<g>
	
		<linearGradient id="SVGID_1_" gradientUnits="userSpaceOnUse" x1="140.5248" y1="164.0498" x2="602.3162" y2="518.8024" gradientTransform="matrix(1 0 0 -1 0 611.8726)">
		<stop  offset="0" style="stop-color:#0B7E85"/>
		<stop  offset="1" style="stop-color:#2FC0CE"/>
	</linearGradient>
	<path class="st0" d="M568.3,84.3v373.2c0,19.8-17.9,34.8-37.4,31.5l-122.7-21.2c-1.1-0.1-1.8-1.1-1.8-2.1V221.8
		c0-17.9-14.7-32.2-32.5-31.9l0,0l-177.8,3.3l-31.5,0.6l-46.8,0.8c-1.2,0-2.1-0.9-2.1-2.1v-63.9c0-16.2,12.2-29.8,28.3-31.7
		l20.7-2.4l31.5-3.5L374,70.7l32.5-3.7l126.2-14.4C551.7,50.5,568.3,65.2,568.3,84.3z M354.7,226.5l-158.4-2.6l-31.5-0.5l-49-0.8
		v78.6l49,2l0,0c17.6,0.7,31.5,15.1,31.5,32.8V431l177.8,30.8V246.2C374.1,235.5,365.4,226.7,354.7,226.5z M164.7,357.1v68.5
		l-24.3-4.1c-14.3-2.5-24.7-14.9-24.7-29.3v-66.4l21.5,1.7C152.7,328.6,164.7,341.6,164.7,357.1z"/>
	
		<linearGradient id="SVGID_00000147210064367841824530000006617776611401756048_" gradientUnits="userSpaceOnUse" x1="47.3396" y1="108.3408" x2="187.7187" y2="262.8151" gradientTransform="matrix(1 0 0 -1 0 611.8726)">
		<stop  offset="0" style="stop-color:#DB7F28"/>
		<stop  offset="1" style="stop-color:#FAB51A"/>
	</linearGradient>
	<path style="fill:url(#SVGID_00000147210064367841824530000006617776611401756048_);" d="M164.7,501.8v27.9
		c0,20.5-20.1,34.8-39.4,28.2l-9.6-3.3l-40-13.7l-11.9-4.1c-12.1-4.1-20.1-15.5-20.1-28.2V352.2c0-17.4,14.8-31,32.2-29.7v134.3
		c0,13.7,9.5,25.7,22.7,29l17.3,4.1L164.7,501.8z"/>
	
		<linearGradient id="SVGID_00000007422163563960629110000012482207656451617698_" gradientUnits="userSpaceOnUse" x1="113.3992" y1="138.616" x2="397.2769" y2="367.2349" gradientTransform="matrix(1 0 0 -1 0 611.8726)">
		<stop  offset="0" style="stop-color:#B5376A"/>
		<stop  offset="1" style="stop-color:#DB5892"/>
	</linearGradient>
	<path style="fill:url(#SVGID_00000007422163563960629110000012482207656451617698_);" d="M374.1,461.8v52.9
		c0,19.3-18.1,33.5-36.8,29l-141-34.2v-78.3L374.1,461.8z M106,222.5c-16.7-0.2-30.3,13.1-30.3,29.8v47.3l40,1.7v-78.6L106,222.5z
		 M140.4,421.5c-14.3-2.5-24.7-14.9-24.7-29.3v-66.4l-40-3.2v134.3c0,13.7,9.5,25.7,22.7,29l17.3,4.1l49,11.8v-76.2L140.4,421.5z"/>
</g>
</svg>
